<?xml version="1.0" encoding="utf-8"?>
<!DOCTYPE svg PUBLIC "-//W3C//DTD SVG 1.1//EN" "http://www.w3.org/Graphics/SVG/1.1/DTD/svg11.dtd">
<svg xmlns="http://www.w3.org/2000/svg" xmlns:xlink="http://www.w3.org/1999/xlink" version="1.1" baseProfile="full" width="30.7227" height="30.7227" viewBox="0 0 30.72 30.72" enable-background="new 0 0 30.72 30.72" xml:space="preserve">
	<path fill="#000000" fill-opacity="1" stroke-width="0.640055" stroke-linejoin="round" d="M 8.96078,8.96078L 14.7213,8.96078L 14.7213,10.2409L 13.4412,10.2409L 12.8011,10.2409L 10.2409,10.2409L 10.2409,13.4412L 12.8011,13.4412L 13.4412,13.4412L 14.7213,13.4412L 14.7213,14.7213L 8.96078,14.7213L 8.96078,8.96078 Z M 13.4412,10.8809L 14.7213,10.8809L 14.7213,12.8011L 13.4412,12.8011L 13.4412,10.8809 Z M 16.0014,8.96078L 21.7619,8.96079L 21.7619,10.2409L 20.4818,10.2409L 19.8417,10.2409L 17.2815,10.2409L 17.2815,13.4412L 19.8417,13.4412L 20.4818,13.4412L 21.7619,13.4412L 21.7619,14.7213L 16.0014,14.7213L 16.0014,8.96078 Z M 20.4818,10.881L 21.7619,10.881L 21.7619,12.8011L 20.4818,12.8011L 20.4818,10.881 Z M 16.0014,16.0014L 21.7619,16.0014L 21.7619,17.2815L 20.4818,17.2815L 19.8417,17.2815L 17.2815,17.2815L 17.2815,20.4818L 19.8417,20.4818L 20.4818,20.4818L 21.7619,20.4818L 21.7619,21.7619L 16.0014,21.7619L 16.0014,16.0014 Z M 20.4818,17.9216L 21.7619,17.9216L 21.7619,19.8417L 20.4818,19.8417L 20.4818,17.9216 Z M 8.96078,16.0014L 14.7213,16.0014L 14.7213,17.2815L 13.4412,17.2815L 12.8011,17.2815L 10.2409,17.2815L 10.2409,20.4818L 12.8011,20.4818L 13.4412,20.4818L 14.7213,20.4818L 14.7213,21.7619L 8.96078,21.7619L 8.96078,16.0014 Z M 13.4412,17.9216L 14.7213,17.9216L 14.7213,19.8417L 13.4412,19.8417L 13.4412,17.9216 Z "/>
</svg>
