<?xml version="1.0" encoding="utf-8"?>
<!DOCTYPE svg PUBLIC "-//W3C//DTD SVG 1.1//EN" "http://www.w3.org/Graphics/SVG/1.1/DTD/svg11.dtd">
<svg xmlns="http://www.w3.org/2000/svg" xmlns:xlink="http://www.w3.org/1999/xlink" version="1.1" baseProfile="full" width="14" height="14" viewBox="0 0 14.00 14.00" enable-background="new 0 0 14.00 14.00" xml:space="preserve">
	<path d="M 14,2.00001L 14,14L 2,14L 2,12L 3.97364e-007,12L 4.76837e-007,1.90735e-005L 12,2.38419e-005L 12,2.00003L 14,2.00001 Z M 3,12L 3,13L 13,13L 13,4.00002L 12,4.00002L 12,12L 3,12 Z M 3,4.00002L 4.99999,4.00002L 4.99999,5.00002L 3,5.00001L 3,4.00002 Z M 2.99999,6.00002L 4.99998,6.00002L 4.99998,7.00002L 2.99999,7.00002L 2.99999,6.00002 Z M 2.99999,8.00002L 4.99998,8.00002L 4.99998,9.00002L 2.99999,9.00001L 2.99999,8.00002 Z M 6.99998,4.00003L 8.99996,4.00004L 8.99996,5.00002L 6.99998,5.00002L 6.99998,4.00003 Z M 6.99998,6.00002L 8.99997,6.00002L 8.99997,7.00002L 6.99998,7.00002L 6.99998,6.00002 Z M 6.99999,8.00001L 8.99997,8.00002L 8.99997,9.00001L 6.99999,9.00001L 6.99999,8.00001 Z M 0.999998,2.00003L 0.999998,11L 11,11L 11,2.00004L 0.999998,2.00003 Z "/>
</svg>
