<?xml version="1.0" encoding="utf-8"?>
<!DOCTYPE svg PUBLIC "-//W3C//DTD SVG 1.1//EN" "http://www.w3.org/Graphics/SVG/1.1/DTD/svg11.dtd">
<svg xmlns="http://www.w3.org/2000/svg" xmlns:xlink="http://www.w3.org/1999/xlink" version="1.1" baseProfile="full" width="30.7227" height="30.7227" viewBox="0 0 30.72 30.72" enable-background="new 0 0 30.72 30.72" xml:space="preserve">
	<path fill="none" stroke-width="0.640055" stroke-linecap="round" stroke-linejoin="round" stroke="#000000" stroke-opacity="1" d="M 15.3613,7.04061L 15.3613,7.04061C 15.5381,7.04061 15.6814,7.18389 15.6814,7.36064L 15.6814,13.7612C 15.6814,13.9379 15.5381,14.0812 15.3613,14.0812L 15.3613,14.0812C 15.1846,14.0812 15.0413,13.9379 15.0413,13.7612L 15.0413,7.36064C 15.0413,7.18389 15.1846,7.04061 15.3613,7.04061 Z "/>
	<path fill="none" stroke-width="1.28011" stroke-linecap="round" stroke-linejoin="round" stroke="#000000" stroke-opacity="1" d="M 17.9169,9.49134C 20.18,10.478 21.7619,12.7349 21.7619,15.3613C 21.7619,18.8963 18.8963,21.7619 15.3613,21.7619C 11.8264,21.7619 8.96078,18.8963 8.96078,15.3613C 8.96078,12.7349 10.5427,10.478 12.8057,9.49134"/>
</svg>
