<?xml version="1.0" encoding="utf-8"?>
<!DOCTYPE svg PUBLIC "-//W3C//DTD SVG 1.1//EN" "http://www.w3.org/Graphics/SVG/1.1/DTD/svg11.dtd">
<svg xmlns="http://www.w3.org/2000/svg" xmlns:xlink="http://www.w3.org/1999/xlink" version="1.1" baseProfile="full" width="30.7227" height="30.7227" viewBox="0 0 30.72 30.72" enable-background="new 0 0 30.72 30.72" xml:space="preserve">
	<path fill="currentColor" stroke-linecap="round" stroke-linejoin="round" d="M 14.0812,17.9216C 14.4347,17.9216 14.7213,18.2081 14.7213,18.5616L 14.7213,19.2017C 14.7213,19.5552 14.4347,19.8417 14.0812,19.8417C 13.7277,19.8417 13.4412,19.5552 13.4412,19.2017L 13.4412,18.5616C 13.4412,18.2081 13.7277,17.9216 14.0812,17.9216 Z M 21.1218,17.9216C 21.4753,17.9216 21.7619,18.2081 21.7619,18.5616L 21.7619,19.2017C 21.7619,19.5552 21.4753,19.8417 21.1218,19.8417C 20.7683,19.8417 20.4818,19.5552 20.4818,19.2017L 20.4818,18.5616C 20.4818,18.2081 20.7683,17.9216 21.1218,17.9216 Z M 14.0812,10.8809C 14.4347,10.8809 14.7213,11.1675 14.7213,11.521L 14.7213,12.1611C 14.7213,12.5146 14.4347,12.8011 14.0812,12.8011C 13.7277,12.8011 13.4412,12.5146 13.4412,12.1611L 13.4412,11.521C 13.4412,11.1675 13.7277,10.8809 14.0812,10.8809 Z M 21.1218,10.8809C 21.4753,10.8809 21.7619,11.1675 21.7619,11.521L 21.7619,12.1611C 21.7619,12.5146 21.4753,12.8011 21.1218,12.8011C 20.7683,12.8011 20.4818,12.5146 20.4818,12.1611L 20.4818,11.521C 20.4818,11.1675 20.7683,10.8809 21.1218,10.8809 Z "/>
	<path stroke-linecap="round" stroke-linejoin="round" d="M 13.4412,8.96078C 14.1481,8.96078 14.7213,9.53391 14.7213,10.2409L 12.8011,10.2409L 11.521,10.2409L 10.8809,10.2409C 10.5275,10.2409 10.2409,10.5275 10.2409,10.881L 10.2409,12.8011C 10.2409,13.1546 10.5275,13.4412 10.881,13.4412L 11.521,13.4412L 14.7213,13.4412C 14.7213,14.1482 14.1482,14.7213 13.4412,14.7213L 10.2409,14.7213C 9.53391,14.7213 8.96078,14.1482 8.96078,13.4412L 8.96077,10.2409C 8.96077,9.53391 9.5339,8.96079 10.2409,8.96079L 13.4412,8.96078 Z M 20.4818,8.96079C 21.1888,8.96079 21.7619,9.53391 21.7619,10.2409L 19.8417,10.2409L 18.5616,10.2409L 17.9216,10.2409C 17.5681,10.2409 17.2815,10.5275 17.2815,10.881L 17.2815,12.8011C 17.2815,13.1546 17.5681,13.4412 17.9216,13.4412L 18.5616,13.4412L 21.7619,13.4412C 21.7619,14.1482 21.1888,14.7213 20.4818,14.7213L 17.2815,14.7213C 16.5745,14.7213 16.0014,14.1482 16.0014,13.4412L 16.0014,10.2409C 16.0014,9.53391 16.5745,8.96079 17.2815,8.96079L 20.4818,8.96079 Z M 13.4412,16.0014C 14.1481,16.0014 14.7213,16.5745 14.7213,17.2815L 12.8011,17.2815L 11.521,17.2815L 10.8809,17.2815C 10.5275,17.2815 10.2409,17.5681 10.2409,17.9216L 10.2409,19.8417C 10.2409,20.1952 10.5275,20.4818 10.8809,20.4818L 11.521,20.4818L 14.7213,20.4818C 14.7213,21.1888 14.1481,21.7619 13.4412,21.7619L 10.2409,21.7619C 9.5339,21.7619 8.96078,21.1888 8.96078,20.4818L 8.96077,17.2815C 8.96077,16.5745 9.5339,16.0014 10.2409,16.0014L 13.4412,16.0014 Z M 20.4818,16.0014C 21.1888,16.0014 21.7619,16.5745 21.7619,17.2815L 19.8417,17.2815L 18.5616,17.2815L 17.9216,17.2815C 17.5681,17.2815 17.2815,17.5681 17.2815,17.9216L 17.2815,19.8417C 17.2815,20.1952 17.5681,20.4818 17.9216,20.4818L 18.5616,20.4818L 21.7619,20.4818C 21.7619,21.1888 21.1888,21.7619 20.4818,21.7619L 17.2815,21.7619C 16.5745,21.7619 16.0014,21.1888 16.0014,20.4818L 16.0014,17.2815C 16.0014,16.5745 16.5745,16.0014 17.2815,16.0014L 20.4818,16.0014 Z "/>
</svg>
