<?xml version="1.0" encoding="utf-8"?>
<!DOCTYPE svg PUBLIC "-//W3C//DTD SVG 1.1//EN" "http://www.w3.org/Graphics/SVG/1.1/DTD/svg11.dtd">
<svg xmlns="http://www.w3.org/2000/svg" xmlns:xlink="http://www.w3.org/1999/xlink" version="1.1" baseProfile="full" width="30.7227" height="30.7227" viewBox="0 0 30.72 30.72" enable-background="new 0 0 30.72 30.72" xml:space="preserve">
	<path fill="#000000" fill-opacity="1" stroke-linejoin="round" d="M 15.3613,10.8809C 12.8869,10.8809 10.8809,12.8869 10.8809,15.3613C 10.8809,17.8358 12.8869,19.8417 15.3613,19.8417C 17.8358,19.8417 19.8417,17.8358 19.8417,15.3613C 19.8417,12.8869 17.8358,10.8809 15.3613,10.8809 Z M 14.0812,8.32073L 16.6414,8.32073L 17.164,9.88854L 17.9573,10.2175L 19.448,9.47217L 21.2583,11.2825L 20.511,12.7771L 20.8308,13.5486L 22.4286,14.0812L 22.4286,16.6415L 20.8308,17.1741L 20.5185,17.9306L 21.2772,19.448L 19.4668,21.2583L 17.9588,20.5043L 17.2041,20.8208L 16.6681,22.4287L 14.1079,22.4287L 13.5786,20.8407L 12.8054,20.5252L 11.3014,21.2772L 9.49103,19.4669L 10.2318,17.9853L 9.89851,17.1941L 8.32071,16.6682L 8.32071,14.1079L 9.87876,13.5886L 10.2108,12.7787L 9.47216,11.3014L 11.2825,9.49106L 12.7505,10.2251L 13.5586,9.88854L 14.0812,8.32073 Z M 15.3613,13.4412C 16.4218,13.4412 17.2815,14.3009 17.2815,15.3613C 17.2815,16.4218 16.4218,17.2815 15.3613,17.2815C 14.3009,17.2815 13.4412,16.4218 13.4412,15.3613C 13.4412,14.3009 14.3009,13.4412 15.3613,13.4412 Z "/>
</svg>
