<?xml version="1.0" encoding="utf-8"?>
<!DOCTYPE svg PUBLIC "-//W3C//DTD SVG 1.1//EN" "http://www.w3.org/Graphics/SVG/1.1/DTD/svg11.dtd">
<svg xmlns="http://www.w3.org/2000/svg" xmlns:xlink="http://www.w3.org/1999/xlink" version="1.1" baseProfile="full" width="30.7227" height="30.7227" viewBox="0 0 30.72 30.72" enable-background="new 0 0 30.72 30.72" xml:space="preserve">
	<path stroke-linecap="round" stroke-linejoin="round" d="M 10.2409,9.60084L 20.4818,9.60084C 21.1888,9.60084 21.7619,10.174 21.7619,10.8809L 19.8417,10.881L 10.8809,10.881C 10.5274,10.881 10.2409,11.1675 10.2409,11.521L 10.2409,18.5616L 8.96077,18.5616L 8.96078,10.8809C 8.96078,10.174 9.5339,9.60084 10.2409,9.60084 Z M 12.1611,19.8417L 19.8417,19.8417C 20.1952,19.8417 20.4818,19.5552 20.4818,19.2017L 20.4818,12.1611L 21.7619,12.1611L 21.7619,19.8417C 21.7619,20.5487 21.1888,21.1218 20.4818,21.1218L 10.2409,21.1218C 9.5339,21.1218 8.96077,20.5487 8.96077,19.8417L 12.1611,19.8417 Z "/>
	<path fill="currentColor" stroke-linecap="round" stroke-linejoin="round" d="M 12.1611,17.9216L 12.1611,15.3613C 12.1611,15.0078 12.4476,14.7213 12.8011,14.7213C 13.1546,14.7213 13.4412,15.0078 13.4412,15.3613L 13.4412,17.9216C 13.4412,18.275 13.1546,18.5616 12.8011,18.5616C 12.4476,18.5616 12.1611,18.275 12.1611,17.9216 Z M 14.7213,17.9216L 14.7213,12.8011C 14.7213,12.4476 15.0078,12.1611 15.3613,12.1611C 15.7148,12.1611 16.0014,12.4476 16.0014,12.8011L 16.0014,17.9216C 16.0014,18.2751 15.7148,18.5616 15.3613,18.5616C 15.0078,18.5616 14.7213,18.2751 14.7213,17.9216 Z M 17.2815,17.9216L 17.2815,14.0812C 17.2815,13.7277 17.5681,13.4412 17.9216,13.4412C 18.275,13.4412 18.5616,13.7277 18.5616,14.0812L 18.5616,17.9216C 18.5616,18.2751 18.275,18.5616 17.9216,18.5616C 17.5681,18.5616 17.2815,18.2751 17.2815,17.9216 Z "/>
</svg>
