<?xml version="1.0" encoding="utf-8"?>
<!DOCTYPE svg PUBLIC "-//W3C//DTD SVG 1.1//EN" "http://www.w3.org/Graphics/SVG/1.1/DTD/svg11.dtd">
<svg xmlns="http://www.w3.org/2000/svg" xmlns:xlink="http://www.w3.org/1999/xlink" version="1.1" baseProfile="full" width="30.7227" height="30.7227" viewBox="0 0 30.72 30.72" enable-background="new 0 0 30.72 30.72" xml:space="preserve">
	<path fill="#000000" fill-opacity="1" stroke-width="0.640055" stroke-linejoin="round" d="M 9.60083,8.96079L 12.8011,8.96079L 12.8011,10.2409L 10.8809,10.2409L 10.8809,20.4818L 19.8417,20.4818L 19.8417,10.2409L 17.9215,10.2409L 17.9215,8.9608L 21.1218,8.9608L 21.1218,21.7619L 9.60083,21.7619L 9.60083,8.96079 Z M 13.4411,8.96081L 14.0812,8.96081L 14.0812,8.32076L 16.6414,8.32076L 16.6414,8.96081L 17.2815,8.96081L 17.2815,10.2409L 13.4411,10.2409L 13.4411,8.96081 Z M 14.0812,12.1611L 18.5616,12.1611L 18.5616,13.4412L 14.0812,13.4412L 14.0812,12.1611 Z M 14.0812,14.7213L 18.5616,14.7213L 18.5616,16.0014L 14.0812,16.0014L 14.0812,14.7213 Z M 14.0812,17.2815L 18.5616,17.2815L 18.5616,18.5616L 14.0812,18.5616L 14.0812,17.2815 Z M 12.161,12.1611L 13.4412,12.1611L 13.4412,13.4412L 12.161,13.4412L 12.161,12.1611 Z M 12.161,14.7213L 13.4412,14.7213L 13.4412,16.0014L 12.161,16.0014L 12.161,14.7213 Z M 12.161,17.2815L 13.4412,17.2815L 13.4412,18.5616L 12.161,18.5616L 12.161,17.2815 Z "/>
</svg>
