<?xml version="1.0" encoding="utf-8"?>
<!DOCTYPE svg PUBLIC "-//W3C//DTD SVG 1.1//EN" "http://www.w3.org/Graphics/SVG/1.1/DTD/svg11.dtd">
<svg xmlns="http://www.w3.org/2000/svg" xmlns:xlink="http://www.w3.org/1999/xlink" version="1.1" baseProfile="full" width="14" height="14" viewBox="0 0 14.00 14.00" enable-background="new 0 0 14.00 14.00" xml:space="preserve">
	<path fill="#FFFFFF" fill-opacity="1" stroke-linejoin="round" d="M 3,4.00001L 6,4.00001L 6,5.00001L 3,5.00001L 3,4.00001 Z M 2.99999,6.00001L 5.99999,6.00002L 5.99999,7.00002L 2.99999,7.00001L 2.99999,6.00001 Z M 2.99999,8.00001L 5.99999,8.00001L 5.99999,9.00001L 2.99999,9.00001L 2.99999,8.00001 Z M 2.99999,10L 5.99999,10L 5.99999,11L 2.99999,11L 2.99999,10 Z M 7.99999,4.00002L 11,4.00003L 11,5.00002L 7.99999,5.00001L 7.99999,4.00002 Z M 7.99999,6.00001L 11,6.00001L 11,7.00001L 7.99999,7.00001L 7.99999,6.00001 Z M 7.99999,8.00001L 11,8.00001L 11,9.00001L 7.99999,9.00001L 7.99999,8.00001 Z M 7.99999,10L 11,10L 11,11L 7.99999,11L 7.99999,10 Z M -1.58946e-007,1.62125e-005L 14,1.62125e-005L 14,14L -2.38419e-007,14L -1.58946e-007,1.62125e-005 Z M 0.999997,2.00003L 0.999998,13L 13,13L 13,2.00003L 0.999997,2.00003 Z "/>
</svg>
