<?xml version="1.0" encoding="utf-8"?>
<!DOCTYPE svg PUBLIC "-//W3C//DTD SVG 1.1//EN" "http://www.w3.org/Graphics/SVG/1.1/DTD/svg11.dtd">
<svg xmlns="http://www.w3.org/2000/svg" xmlns:xlink="http://www.w3.org/1999/xlink" version="1.1" baseProfile="full" width="32" height="32" viewBox="0 0 32.00 32.00" enable-background="new 0 0 32.00 32.00" xml:space="preserve">
	<path fill="#000000" fill-opacity="1" stroke-linejoin="round" d="M 2,1.90735e-006L 30,1.90735e-006C 31.1046,1.90735e-006 32,0.895433 32,2L 32,30C 32,31.1046 31.1046,32 30,32L 2,32C 0.89543,32 0,31.1046 0,30L 0,2C 0,0.895433 0.89543,1.90735e-006 2,1.90735e-006 Z M 3,2.00001C 2.44772,2.00001 2,2.44772 2,3.00001L 2,29C 2,29.5523 2.44772,30 3,30L 29,30C 29.5523,30 30,29.5523 30,29L 30,3.00001C 30,2.44772 29.5523,2.00001 29,2.00001L 3,2.00001 Z "/>
	<path fill="#000000" fill-opacity="0.705882" stroke-linejoin="round" d="M 25.1924,6.80761C 25.5829,7.19814 25.5829,7.8313 25.1924,8.22183L 17.4142,16L 25.1924,23.7782C 25.5829,24.1687 25.5829,24.8019 25.1924,25.1924C 24.8019,25.5829 24.1687,25.5829 23.7782,25.1924L 16,17.4142L 8.22182,25.1924C 7.8313,25.5829 7.19813,25.5829 6.80761,25.1924C 6.41709,24.8019 6.41709,24.1687 6.80761,23.7782L 14.5858,16L 6.80761,8.22182C 6.41708,7.83129 6.41709,7.19813 6.80761,6.8076C 7.19813,6.41708 7.8313,6.41708 8.22182,6.8076L 16,14.5858L 23.7782,6.80761C 24.1687,6.41709 24.8019,6.41709 25.1924,6.80761 Z "/>
</svg>
