<?xml version="1.0" encoding="utf-8"?>
<!DOCTYPE svg PUBLIC "-//W3C//DTD SVG 1.1//EN" "http://www.w3.org/Graphics/SVG/1.1/DTD/svg11.dtd">
<svg xmlns="http://www.w3.org/2000/svg" xmlns:xlink="http://www.w3.org/1999/xlink" version="1.1" baseProfile="full" width="32" height="32" viewBox="0 0 32.00 32.00" enable-background="new 0 0 32.00 32.00" xml:space="preserve">
	<path fill="#000000" fill-opacity="1" stroke-linejoin="round" d="M 3,10L 17,10C 18.1046,10 19,10.8954 19,12L 19,30C 19,31.1046 18.1046,32 17,32L 3,32C 1.89543,32 1,31.1046 1,30L 1,12C 1,10.8954 1.89543,10 3,10 Z M 4,12C 3.44772,12 3,12.4477 3,13L 3,29C 3,29.5523 3.44772,30 4,30L 16,30C 16.5523,30 17,29.5523 17,29L 17,13C 17,12.4477 16.5523,12 16,12L 4,12 Z M 10,18C 12.7614,18 15,20.2386 15,23C 15,25.7614 12.7614,28 10,28C 7.23858,28 5,25.7614 5,23C 5,20.2386 7.23857,18 10,18 Z M 10,20C 8.34314,20 7,21.3431 7,23C 7,24.6569 8.34314,26 10,26C 11.6569,26 13,24.6569 13,23C 13,21.3431 11.6569,20 10,20 Z M 14,14C 14.5523,14 15,14.4477 15,15C 15,15.5523 14.5523,16 14,16C 13.4477,16 13,15.5523 13,15C 13,14.4477 13.4477,14 14,14 Z M 11,14C 11.5523,14 12,14.4477 12,15C 12,15.5523 11.5523,16 11,16C 10.4477,16 10,15.5523 10,15C 10,14.4477 10.4477,14 11,14 Z "/>
	<path fill="#000000" fill-opacity="0.698039" stroke-linejoin="round" d="M 16,7.62939e-006L 29,7.62939e-006C 30.1046,7.62939e-006 31,0.895439 31,2.00001L 31,30C 31,31.1046 30.1046,32 29,32L 16,32C 14.8954,32 14,31.1046 14,30L 14,2.00001C 14,0.895439 14.8954,7.62939e-006 16,7.62939e-006 Z M 17,2.00001C 16.4477,2.00001 16,2.44772 16,3.00001L 16,29C 16,29.5523 16.4477,30 17,30L 28,30C 28.5523,30 29,29.5523 29,29L 29,3.00001C 29,2.44772 28.5523,2.00001 28,2.00001L 17,2.00001 Z M 26,20L 19,20C 18.4477,20 18,19.5523 18,19C 18,18.4477 18.4477,18 19,18L 26,18C 26.5523,18 27,18.4477 27,19C 27,19.5523 26.5523,20 26,20 Z "/>
</svg>
