<?xml version="1.0" encoding="utf-8"?>
<!DOCTYPE svg PUBLIC "-//W3C//DTD SVG 1.1//EN" "http://www.w3.org/Graphics/SVG/1.1/DTD/svg11.dtd">
<svg xmlns="http://www.w3.org/2000/svg" xmlns:xlink="http://www.w3.org/1999/xlink" version="1.1" baseProfile="full" width="19" height="19" viewBox="0 0 19.00 19.00" enable-background="new 0 0 19.00 19.00" xml:space="preserve">
	<path fill="#000000" fill-opacity="1" stroke-linejoin="round" d="M 5.19151,16.8287L 3.84314,17.2782L 1.72182,15.1569L 2.17128,13.8085C 1.77603,13.1376 1.47027,12.4077 1.27041,11.6352L 0,11L 0,8L 1.27042,7.36479C 1.47028,6.59229 1.77604,5.86239 2.17128,5.19153L 1.72182,3.84314L 3.84314,1.72182L 5.19153,2.17129C 5.86239,1.77604 6.59228,1.47028 7.36479,1.27042L 8,0L 11,0L 11.6352,1.27043C 12.4077,1.47029 13.1376,1.77604 13.8085,2.17129L 15.1569,1.72182L 17.2782,3.84314L 16.8287,5.19153C 17.224,5.86239 17.5297,6.59228 17.7296,7.36478L 19,8L 19,11L 17.7296,11.6352C 17.5297,12.4077 17.224,13.1376 16.8287,13.8085L 17.2782,15.1569L 15.1569,17.2782L 13.8085,16.8287C 13.1376,17.224 12.4077,17.5297 11.6352,17.7296L 11,19L 8,19L 7.36479,17.7296C 6.59228,17.5297 5.86238,17.224 5.19151,16.8287 Z M 9.49997,3.00002C 5.91013,3.00002 2.99998,5.91017 2.99998,9.50002C 2.99998,13.0899 5.91013,16 9.49997,16C 13.0898,16 16,13.0899 16,9.50002C 16,5.91017 13.0898,3.00002 9.49997,3.00002 Z M 9.5,6C 11.433,6 13,7.56701 13,9.5C 13,11.433 11.433,13 9.5,13C 7.567,13 6,11.433 6,9.5C 6,7.56701 7.567,6 9.5,6 Z M 9.5,8C 8.67157,8 8,8.67158 8,9.5C 8,10.3284 8.67157,11 9.5,11C 10.3284,11 11,10.3284 11,9.5C 11,8.67158 10.3284,8 9.5,8 Z "/>
</svg>
