<?xml version="1.0" encoding="utf-8"?>
<!DOCTYPE svg PUBLIC "-//W3C//DTD SVG 1.1//EN" "http://www.w3.org/Graphics/SVG/1.1/DTD/svg11.dtd">
<svg xmlns="http://www.w3.org/2000/svg" xmlns:xlink="http://www.w3.org/1999/xlink" version="1.1" baseProfile="full" width="16" height="16" viewBox="0 0 16.00 16.00" enable-background="new 0 0 16.00 16.00" xml:space="preserve">
	<path fill="#000000" fill-opacity="1" stroke-linejoin="round" d="M 2,1.00002L 14,1.00002C 15.1045,1.00002 16,1.89545 16,3.00002L 16,13C 16,14.1046 15.1045,15 14,15L 2,15C 0.89543,15 0,14.1046 0,13L 0,3.00002C 0,1.89545 0.89543,1.00002 2,1.00002 Z M 2.99998,2.99999C 2.44769,2.99999 1.99998,3.4477 1.99998,3.99999L 1.99998,12C 1.99998,12.5523 2.44769,13 2.99998,13L 13,13C 13.5523,13 14,12.5523 14,12L 14,3.99999C 14,3.4477 13.5523,2.99999 13,2.99999L 2.99998,2.99999 Z "/>
	<path fill="#000000" fill-opacity="0.701961" stroke-linejoin="round" d="M 7,5L 14,5C 15.1046,5 16,5.89543 16,7L 16,9C 16,10.1046 15.1046,11 14,11L 7,11C 5.89543,11 5,10.1046 5,9L 5,7C 5,5.89543 5.89543,5 7,5 Z M 8,7C 7.44771,7 7,7.44772 7,8C 7,8.55229 7.44771,9 8,9C 8.55228,9 9,8.55229 9,8C 9,7.44772 8.55228,7 8,7 Z "/>
</svg>
