<?xml version="1.0" encoding="utf-8"?>
<!DOCTYPE svg PUBLIC "-//W3C//DTD SVG 1.1//EN" "http://www.w3.org/Graphics/SVG/1.1/DTD/svg11.dtd">
<svg xmlns="http://www.w3.org/2000/svg" xmlns:xlink="http://www.w3.org/1999/xlink" version="1.1" baseProfile="full" width="16" height="16" viewBox="0 0 16.00 16.00" enable-background="new 0 0 16.00 16.00" xml:space="preserve">
	<path fill="#000000" fill-opacity="0.701961" stroke-linejoin="round" d="M 8.5,4C 10.433,4 12,5.56701 12,7.5C 12,9.433 10.433,11 8.5,11C 6.567,11 5,9.433 5,7.5C 5,5.56701 6.567,4 8.5,4 Z M 8,9.95L 8,8.91465C 7.94982,8.89692 7.90086,8.87658 7.85329,8.85382L 7.1213,9.58581C 7.3837,9.7596 7.68081,9.8852 8,9.95 Z M 7.08535,8L 6.05,8C 6.1148,8.31919 6.2404,8.6163 6.41419,8.8787L 7.14618,8.14671C 7.12342,8.09914 7.10309,8.05019 7.08535,8 Z M 8,6.08536L 8,5.05002C 7.68081,5.11481 7.38371,5.24041 7.1213,5.4142L 7.85329,6.14619L 8,6.08536 Z M 6.05,7L 7.08535,7L 7.14618,6.8533L 6.4142,6.12131C 6.2404,6.38371 6.1148,6.68082 6.05,7 Z M 9,5.05002L 9,6.08536C 9.05018,6.10309 9.09914,6.12342 9.14671,6.14619L 9.87869,5.41421C 9.61629,5.24041 9.31918,5.11481 9,5.05002 Z M 9.91465,7L 10.95,7C 10.8852,6.68082 10.7596,6.38371 10.5858,6.12131L 9.85381,6.8533C 9.87658,6.90087 9.89691,6.94982 9.91465,7 Z M 9,8.91465L 9,9.95C 9.31918,9.8852 9.61629,9.7596 9.87869,9.5858L 9.14671,8.85382L 9,8.91465 Z M 10.95,8L 9.91465,8L 9.85381,8.14671L 10.5858,8.8787C 10.7596,8.61629 10.8852,8.31919 10.95,8 Z M 6.73615,9.27168L 6.72832,9.26386 Z "/>
	<path fill="#000000" fill-opacity="1" stroke-linejoin="round" d="M 2,2.00272e-005L 14,2.00272e-005C 15.1045,2.00272e-005 16,0.895451 16,2.00002L 16,13C 16,14.1046 15.1045,15 14,15C 14,15.5523 13.5523,16 13,16L 11,16C 10.4477,16 10,15.5523 10,15L 6,15C 6,15.5523 5.55228,16 5,16L 3,16C 2.44772,16 2,15.5523 2,15C 0.89543,15 0,14.1046 0,13L 0,2.00002C 0,0.895451 0.89543,2.00272e-005 2,2.00272e-005 Z M 2.99998,2C 2.44769,2 1.99998,2.44771 1.99998,3L 2,4.00001C 2.55228,4.00001 3,4.44772 3,5.00001L 3,6C 3,6.55229 2.55228,7 2,7L 2,8C 2.55228,8 3,8.44772 3,9L 3,10C 3,10.5523 2.55228,11 2,11L 1.99998,12C 1.99998,12.5523 2.44769,13 2.99998,13L 13,13C 13.5523,13 14,12.5523 14,12L 14,3C 14,2.44771 13.5523,2 13,2L 2.99998,2 Z "/>
</svg>
