<svg xmlns="http://www.w3.org/2000/svg" style="position:absolute; width: 0; height: 0;"><defs><path id="logout-a" d="M8 0C3.383 1.306 0 5.55 0 10.586c0 6.075 4.925 11 11 11s11-4.925 11-11C22 5.55 18.617 1.306 14 0v2.098a9.004 9.004 0 0 1 6 8.488 9 9 0 1 1-18 0 9.004 9.004 0 0 1 6-8.488V0z"> </path><path id="logout-b" d="M0 1a1 1 0 0 1 2 0v8a1 1 0 0 1-2 0V1z"> </path><path id="server-a" fill-rule="evenodd" d="M1 0a1 1 0 0 0-1 1v8a1 1 0 0 0 1 1h8a1 1 0 0 0 1-1V1a1 1 0 0 0-1-1H1zm7 2H2v6h6V2z"> </path><path id="server-b" fill-rule="evenodd" d="M1 0a1 1 0 0 0-1 1v8a1 1 0 0 0 1 1h8a1 1 0 0 0 1-1V1a1 1 0 0 0-1-1H1zm7 2H2v6h6V2z"> </path><path id="server-c" fill-rule="evenodd" d="M1 0a1 1 0 0 0-1 1v8a1 1 0 0 0 1 1h8a1 1 0 0 0 1-1V1a1 1 0 0 0-1-1H1zm7 2H2v6h6V2z"> </path><path id="status-a" fill-rule="evenodd" d="M1 0a1 1 0 0 0-1 1v16a1 1 0 0 0 1 1h20a1 1 0 0 0 1-1V1a1 1 0 0 0-1-1H1zm19 2H2v14h18V2z"> </path><path id="status-b" d="M6 0H4v10h2V0z"> </path><path id="status-c" d="M2 5H0v5h2V5z"> </path><path id="status-d" d="M8 3h2v7H8V3z"> </path><path id="status-e" d="M14 5h-2v5h2V5z"> </path></defs><symbol viewBox="0 0 50.00 50.00" id="icon-about"><path d="M9 25L25 9l16 16-16 16L9 25z"></path><path fill="currentColor" fill-opacity=".604" d="M21 13l4-4 4 4-4 4-4-4z"></path><path fill="currentColor" fill-opacity=".502" d="M25 17l4-4 4 4-4 4-4-4z"></path><path fill="currentColor" fill-opacity=".402" d="M25 33l4-4 4 4-4 4-4-4z"></path><path fill="currentColor" fill-opacity=".404" d="M21 37l4-4 4 4-4 4-4-4zM21 21l4-4 4 4-4 4-4-4z"></path><path fill="currentColor" fill-opacity=".451" d="M29 21l4-4 4 4-4 4-4-4z"></path><path fill="currentColor" fill-opacity=".353" d="M33 25l4-4 4 4-4 4-4-4z"></path><path fill="currentColor" fill-opacity=".502" d="M17 17l4-4 4 4-4 4-4-4z"></path><path fill="currentColor" fill-opacity=".302" d="M17 33l4-4 4 4-4 4-4-4z"></path><path fill="currentColor" fill-opacity=".451" d="M13 21l4-4 4 4-4 4-4-4z"></path><path fill="currentColor" fill-opacity=".353" d="M9 25l4-4 4 4-4 4-4-4z"></path></symbol><symbol viewBox="0 0 24.00 24.00" id="icon-add-24"><path d="M6 11h5V6h2v5h5v2h-5v5h-2v-5H6v-2z"></path></symbol><symbol viewBox="0 0 17.92 17.92" id="icon-create"><path fill-rule="evenodd" d="M8.32 4.48H9.6v3.84h3.841V9.6h-3.84v3.841H8.32v-3.84H4.48V8.32h3.84V4.48z"></path></symbol><symbol viewBox="0 0 11.00 10.00" id="icon-data-table-column-arrow"><path d="M2 4h1v1h1v1h1v1h1V6h1V5h1V4h1V3h1v1H9v1H8v1H7v1H6v1H5V7H4V6H3V5H2V4H1V3h1v1z"></path></symbol><symbol viewBox="0 0 14.00 14.00" id="icon-database"><path d="M14 2v12H2v-2H0V0h12v2h2zM3 12v1h10V4h-1v8H3zm0-8h2v1H3V4zm0 2h2v1H3V6zm0 2h2v1H3V8zm4-4h2v1H7V4zm0 2h2v1H7V6zm0 2h2v1H7V8zM1 2v9h10V2H1z"></path></symbol><symbol viewBox="0 0 17.92 17.92" id="icon-delete"><path fill-rule="evenodd" d="M5.76 7.04h6.401v6.401h-6.4v-6.4zm1.28 1.28v3.841h1.28v-3.84H7.04zm3.84 3.841v-3.84H9.6v3.84h1.28zm-5.12-7.04h1.92v-.64h2.56v.64h1.921V6.4h-6.4V5.12z"></path></symbol><symbol viewBox="0 0 17.92 17.92" id="icon-edit"><path fill-rule="evenodd" d="M10.24 6.4l1.281 1.28-4.48 4.481-1.28-1.28 4.48-4.48zm1.921-1.92l1.28 1.28-1.28 1.28-1.28-1.28 1.28-1.28zm-5.76 8.321l-1.92.64.64-1.92 1.28 1.28z"></path></symbol><symbol viewBox="0 0 24.00 24.00" id="icon-error-24"><path d="M12 0c6.627 0 12 5.373 12 12s-5.373 12-12 12S0 18.627 0 12 5.373 0 12 0zm0 2C6.477 2 2 6.477 2 12s4.477 10 10 10 10-4.477 10-10S17.523 2 12 2zm3.536 5.05l1.414 1.414L13.414 12l3.536 3.536-1.414 1.414L12 13.414 8.464 16.95 7.05 15.536 10.586 12 7.05 8.464 8.464 7.05 12 10.586l3.536-3.536z"></path></symbol><symbol viewBox="0 0 17.92 17.92" id="icon-export"><path fill-rule="evenodd" d="M4.48 5.12h1.28v7.681H4.48v-7.68zm2.56 3.2h3.84V6.4l2.561 2.56-2.56 2.561v-1.92H7.04V8.32z"></path></symbol><symbol viewBox="0 0 17.92 17.92" id="icon-import"><path fill-rule="evenodd" d="M4.48 5.12h1.28v7.681H4.48v-7.68zm8.961 4.48h-3.84v1.921l-2.56-2.56L9.6 6.4v1.92h3.84V9.6z"></path></symbol><symbol viewBox="0 0 50 50" id="icon-logout"><use xlink:href="#logout-a" transform="translate(14 14.41)" fill="currentColor"></use><use xlink:href="#logout-b" transform="translate(24 12)"></use></symbol><symbol viewBox="0 0 24.00 24.00" id="icon-remove-24"><path d="M6 11h12v2H6z"></path></symbol><symbol viewBox="0 0 50 50" id="icon-server"><use xlink:href="#server-a" transform="translate(26 14)"></use><use xlink:href="#server-a" transform="translate(14 14)" fill="currentColor"></use><use xlink:href="#server-b" transform="translate(14 26)" fill="currentColor"></use><use xlink:href="#server-c" transform="translate(26 26)" fill="currentColor"></use></symbol><symbol viewBox="0 0 50.00 50.00" id="icon-settings"><path d="M25 21a4 4 0 1 1 0 8 4 4 0 0 1 0-8zm0 2a2 2 0 1 0 0 4 2 2 0 0 0 0-4z"></path><path fill="currentColor" d="M25 17a7.97 7.97 0 0 0-5.302 2.01l-.689.688a7.968 7.968 0 0 0-1.988 4.72v1.164a7.967 7.967 0 0 0 1.988 4.72l.689.689A8 8 0 1 0 25 17zm-1.5-3h3l1.123 1.348a9.943 9.943 0 0 1 2.325.96l1.776-.162 2.12 2.122-.16 1.77c.408.713.731 1.48.955 2.29l1.382 1.151v3l-1.367 1.14c-.22.81-.538 1.58-.942 2.294l.162 1.79-2.12 2.121-1.758-.16a9.943 9.943 0 0 1-2.32.974L26.543 36h-3l-1.111-1.333a9.938 9.938 0 0 1-2.373-.972l-1.74.159-2.121-2.122.155-1.708a9.94 9.94 0 0 1-1.003-2.397l-1.328-1.106v-3l1.313-1.095c.226-.85.562-1.657.99-2.402l-.157-1.727 2.122-2.121 1.72.156a9.937 9.937 0 0 1 2.368-.985L23.5 14z"></path></symbol><symbol viewBox="0 0 50 50" id="icon-status"><use xlink:href="#status-a" transform="translate(14 16)" fill="currentColor"></use><g transform="translate(18 20)"><use xlink:href="#status-b"></use><use xlink:href="#status-c"></use><use xlink:href="#status-d"></use><use xlink:href="#status-e"></use></g></symbol><symbol viewBox="0 0 24.00 24.00" id="icon-success-24"><path d="M12 0c6.627 0 12 5.373 12 12s-5.373 12-12 12S0 18.627 0 12 5.373 0 12 0zm0 2C6.477 2 2 6.477 2 12s4.477 10 10 10 10-4.477 10-10S17.523 2 12 2zm4.586 6L18 9.414l-5.657 5.657-1.414 1.414-1.414-1.414-3.536-3.535 1.414-1.415 3.536 3.536L16.586 8z"></path></symbol><symbol viewBox="0 0 14.00 12.00" id="icon-table"><path d="M0 0h14v12H0V0zm1 2v9h12V2H1zm1 1h4v1H2V3zm0 2h4v1H2V5zm0 2h4v1H2V7zm0 2h4v1H2V9zm6-6h4v1H8V3zm0 2h4v1H8V5zm0 2h4v1H8V7zm0 2h4v1H8V9z"></path></symbol><symbol viewBox="0 0 24.00 24.00" id="icon-warning-24"><path d="M12 0c6.627 0 12 5.373 12 12s-5.373 12-12 12S0 18.627 0 12 5.373 0 12 0zm0 2C6.477 2 2 6.477 2 12s4.477 10 10 10 10-4.477 10-10S17.523 2 12 2zm-1 4h2v9h-2V6zm0 10h2v2h-2v-2z"></path></symbol></svg>