<svg xmlns="http://www.w3.org/2000/svg" style="position:absolute; width: 0; height: 0;"><symbol viewBox="0 0 48.00 48.00" id="icon-about"><path d="M14 16h2v16h-2V16zm18 0h2v16h-2V16zm-3-1h2v18h-2V15zm-12 0h2v18h-2V15zm3 2h2v7h-2v-7zm6 0h2v7h-2v-7zm-3 2h2v7h-2v-7z"></path></symbol><symbol viewBox="0 0 24.00 24.00" id="icon-add-24"><path d="M6 11h5V6h2v5h5v2h-5v5h-2v-5H6v-2z"></path></symbol><symbol viewBox="0 0 17.92 17.92" id="icon-create"><path fill-rule="evenodd" d="M8.32 4.48H9.6v3.84h3.841V9.6h-3.84v3.841H8.32v-3.84H4.48V8.32h3.84V4.48z"></path></symbol><symbol viewBox="0 0 11.00 10.00" id="icon-data-table-column-arrow"><path d="M2 4h1v1h1v1h1v1h1V6h1V5h1V4h1V3h1v1H9v1H8v1H7v1H6v1H5V7H4V6H3V5H2V4H1V3h1v1z"></path></symbol><symbol viewBox="0 0 14.00 14.00" id="icon-database"><path d="M14 2v12H2v-2H0V0h12v2h2zM3 12v1h10V4h-1v8H3zm0-8h2v1H3V4zm0 2h2v1H3V6zm0 2h2v1H3V8zm4-4h2v1H7V4zm0 2h2v1H7V6zm0 2h2v1H7V8zM1 2v9h10V2H1z"></path></symbol><symbol viewBox="0 0 17.92 17.92" id="icon-delete"><path fill-rule="evenodd" d="M5.76 7.04h6.401v6.401h-6.4v-6.4zm1.28 1.28v3.841h1.28v-3.84H7.04zm3.84 3.841v-3.84H9.6v3.84h1.28zm-5.12-7.04h1.92v-.64h2.56v.64h1.921V6.4h-6.4V5.12z"></path></symbol><symbol viewBox="0 0 17.92 17.92" id="icon-edit"><path fill-rule="evenodd" d="M10.24 6.4l1.281 1.28-4.48 4.481-1.28-1.28 4.48-4.48zm1.921-1.92l1.28 1.28-1.28 1.28-1.28-1.28 1.28-1.28zm-5.76 8.321l-1.92.64.64-1.92 1.28 1.28z"></path></symbol><symbol viewBox="0 0 17.92 17.92" id="icon-export"><path fill-rule="evenodd" d="M4.48 5.12h1.28v7.681H4.48v-7.68zm2.56 3.2h3.84V6.4l2.561 2.56-2.56 2.561v-1.92H7.04V8.32z"></path></symbol><symbol viewBox="0 0 17.92 17.92" id="icon-import"><path fill-rule="evenodd" d="M4.48 5.12h1.28v7.681H4.48v-7.68zm8.961 4.48h-3.84v1.921l-2.56-2.56L9.6 6.4v1.92h3.84V9.6z"></path></symbol><symbol viewBox="0 0 30.72 30.72" id="icon-logout"><path fill="currentColor" d="M15.361 7.04a.64.64 0 0 1 .64.64v5.761a.64.64 0 1 1-1.28 0v-5.76a.64.64 0 0 1 .64-.64z"></path><path d="M22.402 15.361a7.04 7.04 0 1 1-9.6-6.56V10.2a5.76 5.76 0 1 0 5.12 0V8.8a7.043 7.043 0 0 1 4.48 6.561z"></path></symbol><symbol viewBox="0 0 24.00 24.00" id="icon-remove-24"><path d="M6 11h12v2H6z"></path></symbol><symbol viewBox="0 0 30.72 30.72" id="icon-server"><path fill="currentColor" d="M14.081 17.922a.64.64 0 0 1 .64.64v.64a.64.64 0 0 1-1.28 0v-.64a.64.64 0 0 1 .64-.64zm7.04 0a.64.64 0 0 1 .64.64v.64a.64.64 0 0 1-1.28 0v-.64a.64.64 0 0 1 .64-.64zm-7.04-7.041a.64.64 0 0 1 .64.64v.64a.64.64 0 0 1-1.28 0v-.64a.64.64 0 0 1 .64-.64zm7.04 0a.64.64 0 0 1 .64.64v.64a.64.64 0 0 1-1.28 0v-.64a.64.64 0 0 1 .64-.64z"></path><path d="M13.441 8.96c.707 0 1.28.574 1.28 1.28H10.881a.64.64 0 0 0-.64.641v1.92c0 .354.287.64.64.64H14.721a1.28 1.28 0 0 1-1.28 1.28h-3.2a1.28 1.28 0 0 1-1.28-1.28v-3.2c0-.707.573-1.28 1.28-1.28h3.2zm7.04 0c.708 0 1.28.574 1.28 1.28H17.922a.64.64 0 0 0-.64.641v1.92c0 .354.287.64.64.64H21.762a1.28 1.28 0 0 1-1.28 1.28h-3.2a1.28 1.28 0 0 1-1.28-1.28v-3.2c0-.707.573-1.28 1.28-1.28h3.2zm-7.04 7.041c.707 0 1.28.573 1.28 1.28H10.881a.64.64 0 0 0-.64.64v1.92c0 .354.287.64.64.64H14.72a1.28 1.28 0 0 1-1.28 1.28h-3.2a1.28 1.28 0 0 1-1.28-1.28v-3.2c0-.706.573-1.28 1.28-1.28h3.2zm7.04 0c.708 0 1.28.573 1.28 1.28H17.922a.64.64 0 0 0-.64.64v1.92c0 .354.287.64.64.64H21.762a1.28 1.28 0 0 1-1.28 1.28h-3.2a1.28 1.28 0 0 1-1.28-1.28v-3.2c0-.706.573-1.28 1.28-1.28h3.2z"></path></symbol><symbol viewBox="0 0 30.72 30.72" id="icon-settings"><path fill="currentColor" d="M15.361 12.801a2.56 2.56 0 1 1 0 5.12 2.56 2.56 0 0 1 0-5.12zm0 1.28a1.28 1.28 0 1 0 0 2.56 1.28 1.28 0 0 0 0-2.56z"></path><path d="M16.001 19.796a4.459 4.459 0 0 0 2.053-.853l.063.063 1.091.655.453-.453-.679-1.131.012-.004-.037-.038a4.456 4.456 0 0 0 .84-2.034h.045l1.28-.32v-.64l-1.28-.32h-.046a4.458 4.458 0 0 0-.853-2.052l.063-.063.655-1.092-.453-.452-1.131.679-.004-.012-.038.037a4.457 4.457 0 0 0-2.034-.84v-.045l-.32-1.28h-.64l-.32 1.28v.045a4.459 4.459 0 0 0-2.044.848l-.038-.037-1.125-.675-.452.452.679 1.132h-.002l.033.034a4.458 4.458 0 0 0-.846 2.041h-.045l-1.28.32v.64l1.28.32h.045c.109.76.408 1.458.848 2.045l-.038.038-.674 1.124.452.453 1.132-.679v.002l.034-.033a4.457 4.457 0 0 0 2.041.845v.046l.32 1.28h.64l.32-1.28v-.046zM9.89 17.164l-1.568-.523v-2.56l1.568-.522.328-.792-.74-1.479 1.811-1.81 1.479.739.792-.328.522-1.568h2.56l.523 1.568.792.328 1.479-.74 1.81 1.811-.74 1.479.33.792 1.567.522v2.56l-1.568.523-.328.792.739 1.479-1.81 1.81-1.479-.74-.792.33-.523 1.567h-2.56l-.522-1.568c-.274-.09-.539-.2-.792-.328l-1.479.739-1.81-1.81.739-1.479a5.722 5.722 0 0 1-.328-.792z"></path></symbol><symbol viewBox="0 0 30.72 30.72" id="icon-status"><path d="M10.24 9.6h10.242c.707 0 1.28.574 1.28 1.28l-1.92.001H10.88a.64.64 0 0 0-.64.64v7.04H8.96v-7.68c0-.707.573-1.28 1.28-1.28zm1.921 10.242h7.68a.64.64 0 0 0 .64-.64v-7.04h1.28v7.68a1.28 1.28 0 0 1-1.28 1.28h-10.24a1.28 1.28 0 0 1-1.28-1.28h3.2z"></path><path fill="currentColor" d="M12.161 17.922v-2.56a.64.64 0 1 1 1.28 0v2.56a.64.64 0 0 1-1.28 0zm2.56 0v-5.12a.64.64 0 1 1 1.28 0v5.12a.64.64 0 0 1-1.28 0zm2.56 0v-3.84a.64.64 0 0 1 1.28 0v3.84a.64.64 0 0 1-1.28 0z"></path></symbol><symbol viewBox="0 0 14.00 12.00" id="icon-table"><path d="M0 0h14v12H0V0zm1 2v9h12V2H1zm1 1h4v1H2V3zm0 2h4v1H2V5zm0 2h4v1H2V7zm0 2h4v1H2V9zm6-6h4v1H8V3zm0 2h4v1H8V5zm0 2h4v1H8V7zm0 2h4v1H8V9z"></path></symbol><symbol id="icon-bg"><path fill-opacity=".1" d="M15 0h1v1h-1v1h-1v1h-1v1h-1v1h-1V4h1V3h1V2h1V1h1V0zm-5 5h1v1h-1v1H9v1H8v1H7v1H6V9h1V8h1V7h1V6h1V5zM8 3h1v1H8v1H7v1H6v1H5v1H4V7h1V6h1V5h1V4h1V3zM6 1h1v1H6v1H5v1H4v1H3v1H2V5h1V4h1V3h1V2h1V1zm8 8h1v1h-1v1h-1v1h-1v1h-1v1h-1v-1h1v-1h1v-1h1v-1h1V9zm-2-2h1v1h-1v1h-1v1h-1v1H9v1H8v-1h1v-1h1V9h1V8h1V7zm-7 3h1v1H5v1H4v1H3v1H2v1H1v1H0v-1h1v-1h1v-1h1v-1h1v-1h1v-1zM3 8h1v1H3v1H2v1H1v1H0v-1h1v-1h1V9h1V8zM1 6h1v1H1v1H0V7h1V6zm8 8h1v1H9v1H8v-1h1v-1zm-2-2h1v1H7v1H6v1H5v1H4v-1h1v-1h1v-1h1v-1zm8 0h1v1h-1v1h-1v1h-1v1h-1v-1h1v-1h1v-1h1v-1zM3 0h1v1H3v1H2v1H1v1H0V3h1V2h1V1h1V0zm7 1h1v1h-1v1H9V2h1V1zm1-1h1v1h-1V0zm3 5h1V4h1v1h-1v1h-1v1h-1V6h1V5zM7 0h1v1H7V0zm8 8h1v1h-1V8z"></path></symbol></svg>