<?xml version="1.0" encoding="utf-8"?>
<!DOCTYPE svg PUBLIC "-//W3C//DTD SVG 1.1//EN" "http://www.w3.org/Graphics/SVG/1.1/DTD/svg11.dtd">
<svg xmlns="http://www.w3.org/2000/svg" xmlns:xlink="http://www.w3.org/1999/xlink" version="1.1" baseProfile="full" width="32" height="32" viewBox="0 0 32.00 32.00" enable-background="new 0 0 32.00 32.00" xml:space="preserve">
	<path fill="#FFFFFF" fill-opacity="0.0509804" fill-rule="evenodd" stroke-width="0.640055" stroke-linejoin="round" d="M 6,8L 8,6L 10,8L 8,10L 6,8 Z M -2,1.90735e-006L -3.86948e-008,-2L 2,1.90735e-006L -4.88261e-007,2L -2,1.90735e-006 Z M -2,32L -9.37827e-007,30L 2,32L -1.94935e-006,34L -2,32 Z M -2,16L -3.86948e-008,14L 2,16L -9.37827e-007,18L -2,16 Z M 6,24L 8,22L 10,24L 8,26L 6,24 Z M 14,1.90735e-006L 16,-2L 18,1.90735e-006L 16,2L 14,1.90735e-006 Z M 14,32L 16,30L 18,32L 16,34L 14,32 Z M 14,16L 16,14L 18,16L 16,18L 14,16 Z M 22,8L 24,6L 26,8L 24,10L 22,8 Z M 30,0L 32,-2L 34,1.90735e-006L 32,2L 30,0 Z M 30,32L 32,30L 34,32L 32,34L 30,32 Z M 30,16L 32,14L 34,16L 32,18L 30,16 Z M 22,24L 24,22L 26,24L 24,26L 22,24 Z "/>
	<path fill="#FFFFFF" fill-opacity="0.0509804" fill-rule="evenodd" stroke-width="0.640055" stroke-linejoin="round" d="M 6,1.90735e-006L 8,-2L 10,1.90735e-006L 8,2L 6,1.90735e-006 Z M 6,32L 8,30L 10,32L 8,34L 6,32 Z M -2,8L -3.86948e-008,6L 2,8L -4.88261e-007,10L -2,8 Z M -2,24L 4.10872e-007,22L 2,24L -4.88261e-007,26L -2,24 Z M 22,1.90735e-006L 24,-2L 26,1.90735e-006L 24,2L 22,1.90735e-006 Z M 22,32L 24,30L 26,32L 24,34L 22,32 Z M 30,8L 32,6L 34,8L 32,10L 30,8 Z M 30,24L 32,22L 34,24L 32,26L 30,24 Z M 6,16L 8,14L 10,16L 8,18L 6,16 Z M 14,8.00001L 16,6.00001L 18,8.00001L 16,10L 14,8.00001 Z M 14,24L 16,22L 18,24L 16,26L 14,24 Z M 22,16L 24,14L 26,16L 24,18L 22,16 Z "/>
	<path fill="#FFFFFF" fill-opacity="0.0509804" stroke-width="0.640055" stroke-linejoin="round" d="M 7.94729e-007,4L 4,0L 8,4L 4,8L 7.94729e-007,4 Z M 2,4L 4,6L 6,4L 4,2L 2,4 Z M 16,4L 20,1.90735e-006L 24,4L 20,8L 16,4 Z M 18,4.00001L 20,6L 22,4.00001L 20,2.00001L 18,4.00001 Z M 16,12L 20,8L 24,12L 20,16L 16,12 Z M 18,12L 20,14L 22,12L 20,10L 18,12 Z M 16,20L 20,16L 24,20L 20,24L 16,20 Z M 18,20L 20,22L 22,20L 20,18L 18,20 Z M 16,28L 20,24L 24,28L 20,32L 16,28 Z M 18,28L 20,30L 22,28L 20,26L 18,28 Z M 8,4L 12,1.90735e-006L 16,4L 12,8L 8,4 Z M 10,4L 12,6L 14,4L 12,2L 10,4 Z M 8,12L 12,8L 16,12L 12,16L 8,12 Z M 10,12L 12,14L 14,12L 12,10L 10,12 Z M 8,20L 12,16L 16,20L 12,24L 8,20 Z M 10,20L 12,22L 14,20L 12,18L 10,20 Z M 8,28L 12,24L 16,28L 12,32L 8,28 Z M 10,28L 12,30L 14,28L 12,26L 10,28 Z M 1.43051e-006,12L 4,8L 8,12L 4,16L 1.43051e-006,12 Z M 2,12L 4,14L 6,12L 4,10L 2,12 Z M -4.76837e-007,20L 4,16L 8,20L 4,24L -4.76837e-007,20 Z M 2,20L 4,22L 6,20L 4,18L 2,20 Z M 4.60943e-006,28L 4,24L 8,28L 4,32L 4.60943e-006,28 Z M 2,28L 4,30L 6,28L 4,26L 2,28 Z M 24,4L 28,1.90735e-006L 32,4L 28,8L 24,4 Z M 26,4L 28,6L 30,4L 28,2L 26,4 Z M 24,12L 28,8L 32,12L 28,16L 24,12 Z M 26,12L 28,14L 30,12L 28,10L 26,12 Z M 24,20L 28,16L 32,20L 28,24L 24,20 Z M 26,20L 28,22L 30,20L 28,18L 26,20 Z M 24,28L 28,24L 32,28L 28,32L 24,28 Z M 26,28L 28,30L 30,28L 28,26L 26,28 Z "/>
</svg>
