<?xml version="1.0" encoding="utf-8"?>
<!DOCTYPE svg PUBLIC "-//W3C//DTD SVG 1.1//EN" "http://www.w3.org/Graphics/SVG/1.1/DTD/svg11.dtd">
<svg xmlns="http://www.w3.org/2000/svg" xmlns:xlink="http://www.w3.org/1999/xlink" version="1.1" width="16" height="16">
	<path fill="#FFFFFF" fill-opacity="0.1" d="M 15,1.14441e-005L 16,1.14441e-005L 16,1L 15,1L 15,2L 14,2L 14,3L 13,3L 13,4L 12,4L 12,5L 11,5L 11,4.00001L 12,4L 12,3.00001L 13,3L 13,2.00001L 14,2L 14,1.00001L 15,1L 15,1.14441e-005 Z M 9.99996,5.00008L 10.9999,5.00008L 10.9999,6.00003L 9.99996,6.00003L 9.99997,7.00002L 8.99997,7.00002L 8.99998,8.00001L 7.99998,8.00001L 7.99999,9L 6.99999,9L 6.99999,9.99999L 5.99999,9.99999L 5.99999,9.00001L 6.99999,9L 6.99999,8.00001L 7.99998,8.00001L 7.99998,7.00002L 8.99997,7.00002L 8.99997,6.00003L 9.99996,6.00003L 9.99996,5.00008 Z M 7.99996,3.00008L 8.99996,3.00008L 8.99996,4.00007L 7.99996,4.00007L 7.99997,5.00005L 6.99997,5.00005L 6.99998,6.00001L 5.99998,6.00001L 5.99999,7L 4.99999,7L 5,7.99999L 4,7.99999L 4,7L 4.99999,7L 4.99999,6.00001L 5.99998,6.00001L 5.99998,5.00005L 6.99997,5.00005L 6.99997,4.00006L 7.99996,4.00007L 7.99996,3.00008 Z M 5.99996,1.00008L 6.99996,1.00008L 6.99996,2.00007L 5.99996,2.00007L 5.99997,3.00005L 4.99998,3.00005L 4.99999,4.00004L 3.99999,4.00004L 3.99999,5.00001L 2.99999,5.00001L 3,5.99999L 2,5.99999L 2,5.00001L 2.99999,5.00001L 2.99999,4.00003L 3.99999,4.00004L 3.99999,3.00005L 4.99998,3.00005L 4.99998,2.00006L 5.99996,2.00007L 5.99996,1.00008 Z M 13.9999,9.00004L 14.9999,9.00004L 14.9999,10L 13.9999,10L 13.9999,11L 13,11L 13,12L 12,12L 12,13L 11,13L 11,14L 10,14L 10,13L 11,13L 11,12L 12,12L 12,11L 12.9999,11L 12.9999,10L 13.9999,10L 13.9999,9.00004 Z M 11.9999,7.00004L 12.9999,7.00004L 12.9999,8.00003L 11.9999,8.00003L 11.9999,9.00002L 11,9.00002L 11,10L 9.99998,10L 9.99999,11L 8.99999,11L 9,12L 8,12L 8,11L 8.99999,11L 8.99999,10L 9.99998,10L 9.99998,9.00002L 10.9999,9.00002L 10.9999,8.00003L 11.9999,8.00003L 11.9999,7.00004 Z M 4.99998,10L 5.99996,10L 5.99996,11L 4.99998,11L 4.99999,12L 3.99999,12L 3.99999,13L 2.99999,13L 3,14L 2,14L 2,15L 1,15L 1,16L 0,16L 0,15L 1,15L 1,14L 2,14L 2,13L 2.99999,13L 2.99999,12L 3.99999,12L 3.99999,11L 4.99998,11L 4.99998,10 Z M 2.99998,8.00005L 3.99998,8.00005L 3.99998,9.00004L 2.99998,9.00004L 2.99999,10L 1.99999,10L 2,11L 0.999998,11L 0.999998,12L 0,12L 0,11L 0.999998,11L 0.999998,10L 1.99999,10L 1.99999,9.00004L 2.99998,9.00004L 2.99998,8.00005 Z M 0.999996,6.00005L 1.99999,6.00005L 1.99999,7.00004L 0.999996,7.00004L 0.999997,8.00003L 0,8.00003L 0,7.00004L 0.999996,7.00004L 0.999996,6.00005 Z M 8.99996,14L 9.99996,14L 9.99996,15L 8.99996,15L 8.99997,16L 7.99997,16L 7.99997,15L 8.99996,15L 8.99996,14 Z M 6.99997,12L 7.99997,12L 7.99997,13L 6.99997,13L 6.99997,14L 5.99997,14L 5.99998,15L 4.99999,15L 4.99999,16L 3.99999,16L 3.99999,15L 4.99999,15L 4.99999,14L 5.99997,14L 5.99997,13L 6.99997,13L 6.99997,12 Z M 14.9999,12L 15.9999,12L 15.9999,13L 15,13L 15,14L 14,14L 14,15L 13,15L 13,16L 12,16L 12,15L 13,15L 13,14L 14,14L 14,13L 14.9999,13L 14.9999,12 Z M 2.99998,6.00815e-005L 3.99998,6.00815e-005L 3.99998,1.00005L 2.99998,1.00005L 2.99999,2.00003L 1.99999,2.00003L 2,3.00001L 0.999999,3.00001L 1,3.99999L 0,3.99999L 0,3L 0.999999,3.00001L 0.999999,2.00002L 1.99999,2.00003L 1.99999,1.00004L 2.99998,1.00005L 2.99998,6.00815e-005 Z M 9.99998,1.00004L 11,1.00004L 11,2.00003L 9.99998,2.00003L 9.99999,3.00002L 8.99999,3.00002L 8.99999,2.00003L 9.99998,2.00003L 9.99998,1.00004 Z M 11,4.29153e-005L 12,4.29153e-005L 12,1.00003L 11,1.00003L 11,4.29153e-005 Z M 14,5.00004L 15,5.00004L 15,4.00004L 16,4.00004L 16,5.00003L 15,5.00004L 15,6.00002L 14,6.00002L 14,7.00001L 13,7.00001L 13,6.00002L 14,6.00002L 14,5.00004 Z M 6.99999,2.67029e-005L 7.99999,2.67029e-005L 7.99999,1.00002L 6.99999,1.00002L 6.99999,2.67029e-005 Z M 15,8.00002L 16,8.00002L 16,9.00001L 15,9.00001L 15,8.00002 Z "/>
</svg>
