<?xml version="1.0" encoding="utf-8"?>
<svg xmlns="http://www.w3.org/2000/svg" width="50" height="50" viewBox="0 0 50.00 50.00">
	<path fill-opacity="1" stroke-linejoin="round" d="M 8.99999,25L 25,8.99999L 41,25L 25,41L 8.99999,25 Z "/>
	<path fill="currentColor" fill-opacity="0.603922" stroke-linejoin="round" d="M 21,13L 25,9L 29,13L 25,17L 21,13 Z "/>
	<path fill="currentColor" fill-opacity="0.501961" stroke-linejoin="round" d="M 25,17L 29,13L 33,17L 29,21L 25,17 Z "/>
	<path fill="currentColor" fill-opacity="0.401961" stroke-linejoin="round" d="M 25,33L 29,29L 33,33L 29,37L 25,33 Z "/>
	<path fill="currentColor" fill-opacity="0.403922" stroke-linejoin="round" d="M 21,37L 25,33L 29,37L 25,41L 21,37 Z "/>
	<path fill="currentColor" fill-opacity="0.403922" stroke-linejoin="round" d="M 21,21L 25,17L 29,21L 25,25L 21,21 Z "/>
	<path fill="currentColor" fill-opacity="0.45098" stroke-linejoin="round" d="M 29,21L 33,17L 37,21L 33,25L 29,21 Z "/>
	<path fill="currentColor" fill-opacity="0.352941" stroke-linejoin="round" d="M 33,25L 37,21L 41,25L 37,29L 33,25 Z "/>
	<path fill="currentColor" fill-opacity="0.501961" stroke-linejoin="round" d="M 17,17L 21,13L 25,17L 21,21L 17,17 Z "/>
	<path fill="currentColor" fill-opacity="0.301961" stroke-linejoin="round" d="M 17,33L 21,29L 25,33L 21,37L 17,33 Z "/>
	<path fill="currentColor" fill-opacity="0.45098" stroke-linejoin="round" d="M 13,21L 17,17L 21,21L 17,25L 13,21 Z "/>
	<path fill="currentColor" fill-opacity="0.352941" stroke-linejoin="round" d="M 9,25L 13,21L 17,25L 13,29L 9,25 Z "/>
</svg>
