<?xml version="1.0" encoding="utf-8"?>
<!DOCTYPE svg PUBLIC "-//W3C//DTD SVG 1.1//EN" "http://www.w3.org/Graphics/SVG/1.1/DTD/svg11.dtd">
<svg xmlns="http://www.w3.org/2000/svg" xmlns:xlink="http://www.w3.org/1999/xlink" version="1.1" baseProfile="full" width="11" height="10" viewBox="0 0 11.00 10.00" enable-background="new 0 0 11.00 10.00" xml:space="preserve">
	<path d="M 2,4L 3,4L 3,5L 4,5L 4,6L 5,6L 5,7L 6,7L 6,6L 7,6L 7,5L 8,5L 8,4L 9,4L 9,3L 10,3L 10,4L 9,4L 9,5L 8,5L 8,6L 7,6L 7,7L 6,7L 6,8L 5,8L 5,7L 4,7L 4,6L 3,6L 3,5L 2,5L 2,4L 1,4L 1,3L 2,3L 2,4 Z "/>
</svg>
