<?xml version="1.0" encoding="utf-8"?>
<!DOCTYPE svg PUBLIC "-//W3C//DTD SVG 1.1//EN" "http://www.w3.org/Graphics/SVG/1.1/DTD/svg11.dtd">
<svg xmlns="http://www.w3.org/2000/svg" xmlns:xlink="http://www.w3.org/1999/xlink" version="1.1" baseProfile="full" width="48" height="48" viewBox="0 0 48.00 48.00" enable-background="new 0 0 48.00 48.00" xml:space="preserve">
	<path fill="#0073C4" fill-opacity="0.203922" stroke-width="2" stroke-linejoin="miter" d="M 24,12C 26.8041,12 29.3836,12.9618 31.4265,14.5735L 29.2854,16.7146C 27.8013,15.6361 25.9749,15 24,15C 22.0251,15 20.1987,15.6361 18.7146,16.7146L 16.5735,14.5735C 18.6164,12.9618 21.1959,12 24,12 Z M 24,36C 21.1959,36 18.6164,35.0382 16.5735,33.4265L 18.7146,31.2854C 20.1987,32.3639 22.025,33 24,33C 25.9749,33 27.8013,32.3639 29.2854,31.2854L 31.4265,33.4265C 29.3836,35.0382 26.8041,36 24,36 Z "/>
	<path fill="#0073C4" fill-opacity="1" stroke-width="2" stroke-linejoin="miter" d="M 36,24C 36,27.3137 34.6569,30.3137 32.4853,32.4853L 30.364,30.364C 31.9926,28.7353 33,26.4853 33,24C 33,21.5147 31.9926,19.2647 30.364,17.636L 32.4853,15.5147C 34.6568,17.6863 36,20.6863 36,24 Z M 12,24C 12,20.6863 13.3431,17.6863 15.5147,15.5147L 17.636,17.636C 16.0074,19.2647 15,21.5147 15,24C 15,26.4853 16.0073,28.7353 17.636,30.364L 15.5147,32.4853C 13.3431,30.3137 12,27.3137 12,24 Z M 17,21L 18,20L 19,19L 24,24L 29,19L 30,20L 31,21L 24,28L 17,21 Z "/>
</svg>
