<?xml version="1.0" encoding="utf-8"?>
<!DOCTYPE svg PUBLIC "-//W3C//DTD SVG 1.1//EN" "http://www.w3.org/Graphics/SVG/1.1/DTD/svg11.dtd">
<svg xmlns="http://www.w3.org/2000/svg" xmlns:xlink="http://www.w3.org/1999/xlink" version="1.1" baseProfile="full" width="30.7227" height="30.7227" viewBox="0 0 30.72 30.72" enable-background="new 0 0 30.72 30.72" xml:space="preserve">
	<path fill="currentColor" d="M 15.3613,7.04063L 15.3613,7.04063C 15.7148,7.04063 16.0014,7.3272 16.0014,7.68069L 16.0014,13.4412C 16.0014,13.7947 15.7148,14.0812 15.3613,14.0812L 15.3613,14.0812C 15.0078,14.0812 14.7213,13.7947 14.7213,13.4412L 14.7213,7.68069C 14.7213,7.3272 15.0078,7.04063 15.3613,7.04063 Z "/>
	<path d="M 22.4019,15.3613C 22.4019,19.2498 19.2498,22.4019 15.3613,22.4019C 11.4729,22.4019 8.32072,19.2498 8.32072,15.3613C 8.32072,12.3761 10.1786,9.82488 12.8011,8.8007L 12.8011,10.1996C 10.9043,11.1422 9.60083,13.0996 9.60083,15.3613C 9.60083,18.5428 12.1799,21.1218 15.3613,21.1218C 18.5428,21.1218 21.1218,18.5428 21.1218,15.3613C 21.1218,13.0996 19.8183,11.1422 17.9216,10.1996L 17.9216,8.80069C 20.5441,9.82486 22.4019,12.3761 22.4019,15.3613 Z "/>
</svg>
