<?xml version="1.0" encoding="utf-8"?>
<!DOCTYPE svg PUBLIC "-//W3C//DTD SVG 1.1//EN" "http://www.w3.org/Graphics/SVG/1.1/DTD/svg11.dtd">
<svg width="50" height="50" viewBox="0 0 50 50" version="1.1" xmlns="http://www.w3.org/2000/svg" xmlns:xlink="http://www.w3.org/1999/xlink">
	<g id="Canvas" transform="translate(0 -1030)">
		<g id="NavigationButton">
			<g id="Subtract">
				<use xlink:href="#path1_fill" transform="translate(14 1044.41)" fill="currentColor"/>
			</g>
			<g id="Rectangle 8">
				<use xlink:href="#path2_fill" transform="translate(24 1042)" />
			</g>
		</g>
	</g>
	<defs>
		<path id="path1_fill" d="M 8 0C 3.38299 1.30591 0 5.5509 0 10.5859C 0 16.661 4.92487 21.5859 11 21.5859C 17.0751 21.5859 22 16.661 22 10.5859C 22 5.5509 18.617 1.30591 14 0L 14 2.09802C 17.4956 3.3335 20 6.66724 20 10.5859C 20 15.5565 15.9706 19.5859 11 19.5859C 6.02944 19.5859 2 15.5565 2 10.5859C 2 6.66724 4.50442 3.3335 8 2.09802L 8 0Z"/>
		<path id="path2_fill" d="M 0 1C 0 0.447715 0.447715 0 1 0L 1 0C 1.55228 0 2 0.447715 2 1L 2 9C 2 9.55228 1.55228 10 1 10L 1 10C 0.447715 10 0 9.55228 0 9L 0 1Z"/>
	</defs>
</svg>
