<?xml version="1.0" encoding="utf-8"?>
<!DOCTYPE svg PUBLIC "-//W3C//DTD SVG 1.1//EN" "http://www.w3.org/Graphics/SVG/1.1/DTD/svg11.dtd">
<svg width="50" height="50" viewBox="0 0 50 50" version="1.1" xmlns="http://www.w3.org/2000/svg" xmlns:xlink="http://www.w3.org/1999/xlink">
	<g id="Canvas" transform="translate(0 -100)">
		<g id="NavigationButton">
			<g id="Subtract">
				<use xlink:href="#path1_fill" transform="translate(26 114)" />
			</g>
			<g id="Group">
				<g id="Subtract">
					<use xlink:href="#path1_fill" transform="translate(14 114)" fill="currentColor"/>
				</g>
				<g id="Subtract">
					<use xlink:href="#path2_fill" transform="translate(14 126)" fill="currentColor"/>
				</g>
				<g id="Subtract">
					<use xlink:href="#path3_fill" transform="translate(26 126)" fill="currentColor"/>
				</g>
			</g>
		</g>
	</g>
	<defs>
		<path id="path1_fill" fill-rule="evenodd" d="M 1 0C 0.447715 0 0 0.447716 0 1L 0 9C 0 9.55228 0.447715 10 1 10L 9 10C 9.55228 10 10 9.55228 10 9L 10 1C 10 0.447716 9.55228 0 9 0L 1 0ZM 8 2L 2 2L 2 8L 8 8L 8 2Z"/>
		<path id="path2_fill" fill-rule="evenodd" d="M 1 0C 0.447715 0 0 0.447708 0 1L 0 9C 0 9.55229 0.447715 10 1 10L 9 10C 9.55228 10 10 9.55229 10 9L 10 1C 10 0.447708 9.55228 0 9 0L 1 0ZM 8 2L 2 2L 2 8L 8 8L 8 2Z"/>
		<path id="path3_fill" fill-rule="evenodd" d="M 1 0C 0.447716 0 0 0.447708 0 1L 0 9C 0 9.55229 0.447716 10 1 10L 9 10C 9.55228 10 10 9.55229 10 9L 10 1C 10 0.447708 9.55228 0 9 0L 1 0ZM 8 2L 2 2L 2 8L 8 8L 8 2Z"/>
	</defs>
</svg>
