<?xml version="1.0" encoding="utf-8"?>
<!DOCTYPE svg PUBLIC "-//W3C//DTD SVG 1.1//EN" "http://www.w3.org/Graphics/SVG/1.1/DTD/svg11.dtd">
<svg xmlns="http://www.w3.org/2000/svg" width="50" height="50" viewBox="0 0 50.00 50.00">
	<path d="M 25,21C 27.2091,21 29,22.7909 29,25C 29,27.2091 27.2091,29 25,29C 22.7909,29 21,27.2091 21,25C 21,22.7909 22.7909,21 25,21 Z M 25,23C 23.8954,23 23,23.8954 23,25C 23,26.1046 23.8954,27 25,27C 26.1046,27 27,26.1046 27,25C 27,23.8954 26.1046,23 25,23 Z "/>
	<path fill="currentColor" d="M 25,17C 22.966,17 21.1094,17.7591 19.6978,19.0093L 19.0093,19.6978C 17.8793,20.9736 17.1506,22.613 17.0208,24.4182L 17.0208,25.5818C 17.1506,27.3871 17.8793,29.0265 19.0094,30.3023L 19.6977,30.9906C 21.1093,32.2409 22.966,33 25,33C 29.4183,33 33,29.4183 33,25C 33,20.5817 29.4183,17 25,17 Z M 23.5,14L 26.5,14L 27.6229,15.3475C 28.4447,15.5703 29.2245,15.8953 29.9479,16.3079L 31.7236,16.1464L 33.8449,18.2678L 33.684,20.0379C 34.0922,20.7507 34.4151,21.5186 34.6389,22.3276L 36.0208,23.4792L 36.0208,26.4792L 34.6537,27.6185C 34.4344,28.4289 34.1158,29.1985 33.7117,29.9134L 33.8744,31.7028L 31.7531,33.8241L 29.9962,33.6644C 29.2751,34.0811 28.4972,34.4103 27.6769,34.6377L 26.5417,36L 23.5417,36L 22.4307,34.6669C 21.5913,34.4444 20.7953,34.1154 20.0579,33.6954L 18.318,33.8536L 16.1967,31.7323L 16.352,30.0244C 15.9191,29.281 15.5794,28.4767 15.3487,27.6274L 14.0208,26.5209L 14.0208,23.5209L 15.3343,22.4263C 15.5603,21.5755 15.8955,20.7693 16.3242,20.0236L 16.1673,18.2972L 18.2886,16.1759L 20.0095,16.3324C 20.7447,15.9081 21.539,15.5747 22.3771,15.3475L 23.5,14 Z "/>
</svg>
