<?xml version="1.0" encoding="utf-8"?>
<svg xmlns="http://www.w3.org/2000/svg" width="50" height="50" viewBox="0 0 50.00 50.00">
	<path fill="currentColor" fill-opacity="1" stroke-linejoin="round" d="M 25,15C 30.5228,15 35,19.4772 35,25C 35,30.5229 30.5228,35 25,35C 19.4771,35 15,30.5229 15,25C 15,19.4772 19.4771,15 25,15 Z M 25,17C 20.5817,17 17,20.5817 17,25C 17,29.4183 20.5817,33 25,33C 29.4183,33 33,29.4183 33,25C 33,20.5817 29.4183,17 25,17 Z "/>
	<path fill="currentColor" fill-opacity="1" stroke-linejoin="round" d="M 23.5,14L 26.5,14L 28,17L 22,17L 23.5,14 Z M 31.7175,16.1612L 33.8388,18.2825L 32.7782,21.4645L 28.5355,17.2219L 31.7175,16.1612 Z M 36,23.5L 36,26.5L 33,28L 33,22L 36,23.5 Z M 33.8388,31.7175L 31.7175,33.8388L 28.5355,32.7782L 32.7782,28.5356L 33.8388,31.7175 Z M 26.5,36L 23.5,36L 22,33L 28,33L 26.5,36 Z M 18.2825,33.8388L 16.1612,31.7175L 17.2218,28.5355L 21.4645,32.7782L 18.2825,33.8388 Z M 14,26.5L 14,23.5L 17,22L 17,28L 14,26.5 Z M 16.1612,18.2825L 18.2825,16.1612L 21.4645,17.2218L 17.2218,21.4645L 16.1612,18.2825 Z "/>
	<path fill-opacity="1" stroke-linejoin="round" d="M 25,20C 27.7614,20 30,22.2386 30,25C 30,27.7614 27.7614,30 25,30C 22.2386,30 20,27.7614 20,25C 20,22.2386 22.2386,20 25,20 Z M 25,22C 23.3431,22 22,23.3432 22,25C 22,26.6569 23.3431,28 25,28C 26.6569,28 28,26.6569 28,25C 28,23.3432 26.6568,22 25,22 Z "/>
</svg>
