<?xml version="1.0" encoding="utf-8"?>
<!DOCTYPE svg PUBLIC "-//W3C//DTD SVG 1.1//EN" "http://www.w3.org/Graphics/SVG/1.1/DTD/svg11.dtd">
<svg xmlns="http://www.w3.org/2000/svg" xmlns:xlink="http://www.w3.org/1999/xlink" version="1.1" baseProfile="full" width="30.7227" height="30.7227" viewBox="0 0 30.72 30.72" enable-background="new 0 0 30.72 30.72" xml:space="preserve">
	<path fill="currentColor" d="M 15.3613,12.8011C 16.7753,12.8011 17.9216,13.9474 17.9216,15.3613C 17.9216,16.7753 16.7753,17.9216 15.3613,17.9216C 13.9474,17.9216 12.8011,16.7753 12.8011,15.3613C 12.8011,13.9474 13.9474,12.8011 15.3613,12.8011 Z M 15.3613,14.0812C 14.6543,14.0812 14.0812,14.6543 14.0812,15.3613C 14.0812,16.0683 14.6543,16.6414 15.3613,16.6414C 16.0683,16.6414 16.6414,16.0683 16.6414,15.3613C 16.6414,14.6543 16.0683,14.0812 15.3613,14.0812 Z "/>
	<path d="M 16.0014,19.7964C 16.7644,19.6872 17.4654,19.3858 18.0538,18.9428L 18.1172,19.0062L 19.2083,19.6609L 19.6609,19.2083L 18.982,18.0769L 18.9941,18.0728L 18.9566,18.0353C 19.3921,17.4508 19.6883,16.7565 19.7963,16.0014L 19.8417,16.0014L 21.1218,15.6814L 21.1218,15.0413L 19.8417,14.7213L 19.7963,14.7213C 19.6872,13.9583 19.3858,13.2573 18.9428,12.6689L 19.0062,12.6056L 19.6609,11.5143L 19.2083,11.0618L 18.0768,11.7406L 18.0728,11.7286L 18.0353,11.7661C 17.4508,11.3306 16.7564,11.0343 16.0014,10.9263L 16.0014,10.8809L 15.6814,9.60084L 15.0413,9.60084L 14.7213,10.8809L 14.7213,10.9263C 13.9615,11.035 13.2633,11.3343 12.6765,11.7741L 12.6389,11.7365L 11.5143,11.0618L 11.0617,11.5143L 11.7406,12.6458L 11.7385,12.6465L 11.7717,12.6797C 11.3332,13.2658 11.0348,13.9629 10.9263,14.7213L 10.8809,14.7213L 9.60082,15.0413L 9.60082,15.6814L 10.8809,16.0014L 10.9263,16.0014C 11.035,16.7611 11.3342,17.4594 11.7741,18.0462L 11.7364,18.0838L 11.0617,19.2083L 11.5143,19.6609L 12.6458,18.982L 12.6465,18.9841L 12.6797,18.9509C 13.2658,19.3895 13.9629,19.6879 14.7213,19.7964L 14.7213,19.8417L 15.0413,21.1218L 15.6814,21.1218L 16.0014,19.8417L 16.0014,19.7964 Z M 9.88851,17.1641L 8.32071,16.6415L 8.32071,14.0812L 9.88852,13.5586L 10.2169,12.7666L 9.47768,11.2881L 11.288,9.4777L 12.7665,10.217L 13.5586,9.88855L 14.0812,8.32073L 16.6414,8.32073L 17.164,9.88855L 17.9561,10.217L 19.4346,9.47769L 21.245,11.288L 20.5057,12.7666L 20.8341,13.5586L 22.4019,14.0812L 22.4019,16.6414L 20.8341,17.1641L 20.5057,17.9561L 21.245,19.4346L 19.4346,21.245L 17.9561,20.5057L 17.164,20.8341L 16.6414,22.4019L 14.0812,22.4019L 13.5586,20.8341C 13.285,20.7441 13.0203,20.634 12.7665,20.5057L 11.288,21.245L 9.47769,19.4346L 10.2169,17.9561C 10.0886,17.7023 9.9786,17.4377 9.88851,17.1641 Z "/>
</svg>
