<?xml version="1.0" encoding="utf-8"?>
<!DOCTYPE svg PUBLIC "-//W3C//DTD SVG 1.1//EN" "http://www.w3.org/Graphics/SVG/1.1/DTD/svg11.dtd">
<svg width="50" height="50" viewBox="0 0 50 50" version="1.1" xmlns="http://www.w3.org/2000/svg" xmlns:xlink="http://www.w3.org/1999/xlink">
	<g id="Canvas" transform="translate(0 -150)">
		<g id="NavigationButton">
			<g id="Subtract">
				<use xlink:href="#path1_fill" transform="translate(15 165)" fill="currentColor"/>
			</g>
			<g id="Subtract">
				<use xlink:href="#path2_fill" transform="translate(21 171)" />
			</g>
			<g id="Rectangle 6">
				<use xlink:href="#path3_fill" transform="translate(22 163)" fill="currentColor"/>
			</g>
			<g id="Rectangle 6">
				<use xlink:href="#path3_fill" transform="matrix(-1 1.22465e-16 -1.22465e-16 -1 28 187)" fill="currentColor"/>
			</g>
			<g id="Rectangle 6">
				<use xlink:href="#path3_fill" transform="matrix(6.12323e-17 1 -1 6.12323e-17 37 172)" fill="currentColor"/>
			</g>
			<g id="Rectangle 6">
				<use xlink:href="#path3_fill" transform="matrix(-1.83697e-16 -1 1 -1.83697e-16 13 178)" fill="currentColor"/>
			</g>
			<g id="Rectangle 6">
				<use xlink:href="#path3_fill" transform="matrix(0.707107 0.707107 -0.707107 0.707107 31.364 164.393)" fill="currentColor"/>
			</g>
			<g id="Rectangle 6">
				<use xlink:href="#path3_fill" transform="matrix(-0.707107 -0.707107 0.707107 -0.707107 18.636 185.607)" fill="currentColor"/>
			</g>
			<g id="Rectangle 6">
				<use xlink:href="#path3_fill" transform="matrix(-0.707107 0.707107 -0.707107 -0.707107 35.6066 181.364)" fill="currentColor"/>
			</g>
			<g id="Rectangle 6">
				<use xlink:href="#path3_fill" transform="matrix(0.707107 -0.707107 0.707107 0.707107 14.3934 168.636)" fill="currentColor"/>
			</g>
		</g>
	</g>
	<defs>
		<path id="path0_fill" d="M 0 0L 50 0L 50 50L 0 50L 0 0Z"/>
		<path id="path1_fill" fill-rule="evenodd" d="M 10 0C 15.5228 0 20 4.47716 20 10C 20 15.5228 15.5228 20 10 20C 4.47715 20 0 15.5228 0 10C 0 4.47716 4.47715 0 10 0ZM 11.2753 17.8989L 11 19L 9 19L 8.72473 17.8989C 7.46673 17.6974 6.30669 17.2026 5.31695 16.4868L 4.34315 17.0711L 2.92893 15.6569L 3.51321 14.683C 2.79744 13.6933 2.30262 12.5333 2.10109 11.2753L 1 11L 1 9L 2.10109 8.72473C 2.30262 7.46674 2.79744 6.30669 3.51321 5.31696L 2.92893 4.34315L 4.34315 2.92894L 5.31695 3.51321C 6.30668 2.79744 7.46673 2.30261 8.72473 2.10109L 9 1L 11 1L 11.2753 2.10109C 12.5333 2.30261 13.6933 2.79744 14.683 3.51321L 15.6569 2.92892L 17.0711 4.34314L 16.4868 5.31696C 17.2026 6.30669 17.6974 7.46674 17.8989 8.72473L 19 9L 19 11L 17.8989 11.2753C 17.6974 12.5333 17.2026 13.6933 16.4868 14.683L 17.0711 15.6568L 15.6569 17.0711L 14.6831 16.4868C 13.6933 17.2026 12.5333 17.6974 11.2753 17.8989Z"/>
		<path id="path2_fill" fill-rule="evenodd" d="M 4 8C 6.20914 8 8 6.20914 8 4C 8 1.79086 6.20914 0 4 0C 1.79086 0 0 1.79086 0 4C 0 6.20914 1.79086 8 4 8ZM 4 6C 5.10457 6 6 5.10457 6 4C 6 2.89543 5.10457 2 4 2C 2.89543 2 2 2.89543 2 4C 2 5.10457 2.89543 6 4 6Z"/>
		<path id="path3_fill" d="M 1.5 0L 4.5 0L 6 3L 0 3L 1.5 0Z"/>
	</defs>
</svg>
