<?xml version="1.0" encoding="utf-8"?>
<!DOCTYPE svg PUBLIC "-//W3C//DTD SVG 1.1//EN" "http://www.w3.org/Graphics/SVG/1.1/DTD/svg11.dtd">
<svg width="50" height="50" viewBox="0 0 50 50" version="1.1" xmlns="http://www.w3.org/2000/svg" xmlns:xlink="http://www.w3.org/1999/xlink">
	<g id="Canvas" transform="translate(0 -50)">
		<g id="Subtract">
			<use xlink:href="#path0_fill" transform="translate(14 66)" fill="currentColor"/>
		</g>
		<g id="Union">
			<use xlink:href="#path1_fill" transform="translate(18 70)" />
			<use xlink:href="#path2_fill" transform="translate(18 70)" />
			<use xlink:href="#path3_fill" transform="translate(18 70)" />
			<use xlink:href="#path4_fill" transform="translate(18 70)" />
		</g>
	</g>
	<defs>
		<path id="path0_fill" fill-rule="evenodd" d="M 1 0C 0.447715 0 0 0.447716 0 1L 0 17C 0 17.5523 0.447715 18 1 18L 21 18C 21.5523 18 22 17.5523 22 17L 22 1C 22 0.447716 21.5523 0 21 0L 1 0ZM 20 2L 2 2L 2 16L 20 16L 20 2Z"/>
		<path id="path1_fill" d="M 6 0L 4 0L 4 10L 6 10L 6 0Z"/>
		<path id="path2_fill" d="M 2 5L 0 5L 0 10L 2 10L 2 5Z"/>
		<path id="path3_fill" d="M 8 3L 10 3L 10 10L 8 10L 8 3Z"/>
		<path id="path4_fill" d="M 14 5L 12 5L 12 10L 14 10L 14 5Z"/>
	</defs>
</svg>