<?xml version="1.0" encoding="utf-8"?>
<!DOCTYPE svg PUBLIC "-//W3C//DTD SVG 1.1//EN" "http://www.w3.org/Graphics/SVG/1.1/DTD/svg11.dtd">
<svg xmlns="http://www.w3.org/2000/svg" xmlns:xlink="http://www.w3.org/1999/xlink" version="1.1" baseProfile="full" width="14" height="12" viewBox="0 0 14.00 12.00" enable-background="new 0 0 14.00 12.00" xml:space="preserve">
	<path d="M 0,0L 14,0L 14,12L 0,12L 0,0 Z M 1,2.00001L 1,11L 13,11L 13,2.00001L 1,2.00001 Z M 2,3L 5.99999,3L 5.99999,4L 2,4L 2,3 Z M 2,5L 6,5L 6,6L 2,6L 2,5 Z M 2,7L 6,7L 6,8L 2,8L 2,7 Z M 2,9L 6,9L 6,10L 2,10L 2,9 Z M 8,3L 12,3L 12,4L 8,4L 8,3 Z M 8,5L 12,5L 12,6L 8,6L 8,5 Z M 8,7L 12,7L 12,8L 8,8L 8,7 Z M 8,9L 12,9L 12,10L 8,10L 8,9 Z "/>
</svg>
