<?xml version="1.0" encoding="utf-8"?>
<!DOCTYPE svg PUBLIC "-//W3C//DTD SVG 1.1//EN" "http://www.w3.org/Graphics/SVG/1.1/DTD/svg11.dtd">
<svg xmlns="http://www.w3.org/2000/svg" xmlns:xlink="http://www.w3.org/1999/xlink" version="1.1" baseProfile="full" width="24" height="24" viewBox="0 0 24.00 24.00" enable-background="new 0 0 24.00 24.00" xml:space="preserve">
	<path fill="#000000" fill-opacity="1" stroke-linejoin="round" d="M 12,0C 18.6274,0 24,5.37259 24,12C 24,18.6274 18.6274,24 12,24C 5.37258,24 -1.27157e-006,18.6274 -1.27157e-006,12C -1.27157e-006,5.37259 5.37258,0 12,0 Z M 12,2.00001C 6.47715,2.00001 2,6.47716 2,12C 2,17.5229 6.47715,22 12,22C 17.5228,22 22,17.5229 22,12C 22,6.47716 17.5228,2.00001 12,2.00001 Z M 11,6L 13,6L 13,15L 11,15L 11,6 Z M 11,16L 13,16L 13,18L 11,18L 11,16 Z "/>
</svg>
