<svg xmlns="http://www.w3.org/2000/svg" style="position:absolute; width: 0; height: 0"><symbol viewBox="0 0 16.00 16.00" id="icon-account-type-account"><ellipse fill-opacity=".702" cx="8" cy="10" rx="2" ry="2"></ellipse><path d="M15 9a2 2 0 0 1-2 2h-2v-1h2a1 1 0 0 0 1-1h1z"></path><path d="M2 9a1 1 0 0 0 1 1h2v1H3a1.99 1.99 0 0 1-1-.268V13a1 1 0 0 0 1 1h10a1 1 0 0 0 1-1V6a1 1 0 0 0-1-1H3a1 1 0 0 0-1 1v3zm0-6h1V1a1 1 0 0 1 1-1h8a1 1 0 0 1 1 1v2h1a2 2 0 0 1 2 2v9a2 2 0 0 1-2 2H2a2 2 0 0 1-2-2V5a2 2 0 0 1 2-2zm3-1v1h6V2H5z"></path></symbol><symbol viewBox="0 0 16.00 16.00" id="icon-account-type-card"><path d="M2 2h12a2 2 0 0 1 2 2v8a2 2 0 0 1-2 2H2a2 2 0 0 1-2-2V4a2 2 0 0 1 2-2zm1 2a1 1 0 0 0-1 1v6a1 1 0 0 0 1 1h10a1 1 0 0 0 1-1V5a1 1 0 0 0-1-1H3z"></path><path fill-opacity=".702" d="M2 5h12v3H2z"></path></symbol><symbol viewBox="0 0 16.00 16.00" id="icon-account-type-cash"><path d="M2 1h12a2 2 0 0 1 2 2v10a2 2 0 0 1-2 2H2a2 2 0 0 1-2-2V3a2 2 0 0 1 2-2zm1 2a1 1 0 0 0-1 1v8a1 1 0 0 0 1 1h10a1 1 0 0 0 1-1V4a1 1 0 0 0-1-1H3z"></path><path fill-opacity=".702" d="M7 5h7a2 2 0 0 1 2 2v2a2 2 0 0 1-2 2H7a2 2 0 0 1-2-2V7a2 2 0 0 1 2-2zm1 2a1 1 0 1 0 0 2 1 1 0 0 0 0-2z"></path></symbol><symbol viewBox="0 0 16.00 16.00" id="icon-account-type-deposit"><path fill-opacity=".702" d="M8.5 4a3.5 3.5 0 1 1 0 7 3.5 3.5 0 0 1 0-7zM8 9.95V8.915a1.49 1.49 0 0 1-.147-.061l-.732.732c.263.174.56.3.879.364zM7.085 8H6.05c.065.32.19.616.364.879l.732-.732A1.492 1.492 0 0 1 7.086 8zM8 6.085V5.05c-.32.065-.616.19-.879.364l.732.732.147-.06zM6.05 7h1.035l.061-.147-.732-.732c-.174.263-.3.56-.364.879zM9 5.05v1.035c.05.018.1.038.147.061l.732-.732c-.263-.174-.56-.3-.879-.364zM9.915 7h1.035a2.486 2.486 0 0 0-.364-.879l-.732.732c.023.048.043.097.06.147zM9 8.915V9.95c.32-.065.616-.19.879-.364l-.732-.732-.147.06zM10.95 8H9.915l-.061.147.732.732c.174-.263.3-.56.364-.879zM6.736 9.272l-.008-.008z"></path><path d="M2 0h12a2 2 0 0 1 2 2v11a2 2 0 0 1-2 2 1 1 0 0 1-1 1h-2a1 1 0 0 1-1-1H6a1 1 0 0 1-1 1H3a1 1 0 0 1-1-1 2 2 0 0 1-2-2V2a2 2 0 0 1 2-2zm1 2a1 1 0 0 0-1 1v1a1 1 0 0 1 1 1v1a1 1 0 0 1-1 1v1a1 1 0 0 1 1 1v1a1 1 0 0 1-1 1v1a1 1 0 0 0 1 1h10a1 1 0 0 0 1-1V3a1 1 0 0 0-1-1H3z"></path></symbol><symbol viewBox="0 0 23.00 7.00" id="icon-cashflow"><path d="M2 3h17V0l4 3.5L19 7V4H2v2H0V1h2v2z"></path></symbol><symbol viewBox="0 0 16.00 16.00" id="icon-category"><path fill-opacity=".6" d="M3 7h10v2H3z"></path><path d="M3 10h10v2H3v-2zM0 1h16v14H0V1zm2 2v10h12V3H2zm1 1h10v2H3V4z"></path></symbol><symbol viewBox="0 0 16.00 16.00" id="icon-create"><path d="M7 0h2v7h7v2H9v7H7V9H0V7h7V0z"></path></symbol><symbol viewBox="0 0 14.00 14.00" id="icon-delete"><path d="M2 4h10v9.994H2V4zm2 2v5.994h2V6H4zm6 5.994V6H8v5.994h2zM1 1h3V0h6v1h3v2H1V1z"></path></symbol><symbol viewBox="0 0 16.00 16.00" id="icon-edit"><path d="M10 4l2 2-7 7-2-2 7-7zM13.024 1L15 3.025 13.024 5l-2-2 2-2zM1 15l3-1-2-2-1 3z"></path></symbol><symbol viewBox="0 0 32.00 32.00" id="icon-goal-category-appliances"><path d="M3 10h14a2 2 0 0 1 2 2v18a2 2 0 0 1-2 2H3a2 2 0 0 1-2-2V12a2 2 0 0 1 2-2zm1 2a1 1 0 0 0-1 1v16a1 1 0 0 0 1 1h12a1 1 0 0 0 1-1V13a1 1 0 0 0-1-1H4zm6 6a5 5 0 1 1 0 10 5 5 0 0 1 0-10zm0 2a3 3 0 1 0 0 6 3 3 0 0 0 0-6zm4-6a1 1 0 1 1 0 2 1 1 0 0 1 0-2zm-3 0a1 1 0 1 1 0 2 1 1 0 0 1 0-2z"></path><path fill-opacity=".698" d="M16 0h13a2 2 0 0 1 2 2v28a2 2 0 0 1-2 2H16a2 2 0 0 1-2-2V2a2 2 0 0 1 2-2zm1 2a1 1 0 0 0-1 1v26a1 1 0 0 0 1 1h11a1 1 0 0 0 1-1V3a1 1 0 0 0-1-1H17zm9 18h-7a1 1 0 1 1 0-2h7a1 1 0 1 1 0 2z"></path></symbol><symbol viewBox="0 0 48 48" id="icon-goal-category-car"><path d="M37.84 12.02A3.007 3.007 0 0 0 35 10H13c-1.31 0-2.43.84-2.84 2.02L6 24v16c0 1.1.9 2 2 2h2a2 2 0 0 0 2-2v-2h24v2c0 1.1.9 2 2 2h2a2 2 0 0 0 2-2V24l-4.16-11.98zM13 32c-1.66 0-3-1.34-3-3s1.34-3 3-3 3 1.34 3 3-1.34 3-3 3zm22 0c-1.66 0-3-1.34-3-3s1.34-3 3-3 3 1.34 3 3-1.34 3-3 3zM10 22l3-9h22l3 9H10z"></path><path d="M0 0h48v48H0z" fill="none"></path></symbol><symbol viewBox="0 0 32.00 32.00" id="icon-goal-category-placeholder"><path d="M2 0h28a2 2 0 0 1 2 2v28a2 2 0 0 1-2 2H2a2 2 0 0 1-2-2V2a2 2 0 0 1 2-2zm1 2a1 1 0 0 0-1 1v26a1 1 0 0 0 1 1h26a1 1 0 0 0 1-1V3a1 1 0 0 0-1-1H3z"></path><path fill-opacity=".706" d="M25.192 6.808a1 1 0 0 1 0 1.414L17.414 16l7.778 7.778a1 1 0 0 1-1.414 1.414L16 17.414l-7.778 7.778a1 1 0 0 1-1.414-1.414L14.586 16 6.808 8.222a1 1 0 0 1 1.414-1.414L16 14.586l7.778-7.778a1 1 0 0 1 1.414 0z"></path></symbol><symbol viewBox="0 0 19.00 19.00" id="icon-settings"><path d="M5.192 16.829l-1.349.45-2.121-2.122.45-1.348a8.45 8.45 0 0 1-.902-2.174L0 11V8l1.27-.635a8.45 8.45 0 0 1 .901-2.173l-.45-1.349 2.122-2.121 1.349.45c.67-.396 1.4-.702 2.173-.902L8 0h3l.635 1.27a8.45 8.45 0 0 1 2.174.901l1.348-.45 2.121 2.122-.45 1.349c.396.67.702 1.4.902 2.173L19 8v3l-1.27.635a8.45 8.45 0 0 1-.901 2.174l.45 1.348-2.122 2.121-1.348-.45a8.45 8.45 0 0 1-2.174.902L11 19H8l-.635-1.27a8.449 8.449 0 0 1-2.173-.901zM9.5 3a6.5 6.5 0 1 0 0 13 6.5 6.5 0 0 0 0-13zm0 3a3.5 3.5 0 1 1 0 7 3.5 3.5 0 0 1 0-7zm0 2a1.5 1.5 0 1 0 0 3 1.5 1.5 0 0 0 0-3z"></path></symbol><symbol viewBox="0 0 14.00 14.00" id="icon-toolbutton-create"><path d="M6 0h2v6h6v2H8v6H6V8H0V6h6V0z"></path></symbol><symbol viewBox="0 0 14.00 14.00" id="icon-toolbutton-delete"><path d="M2 3h10v11H2V3zm2 2v7h2V5H4zm6 7V5H8v7h2zM2 0h10v2H2V0z"></path></symbol><symbol viewBox="0 0 14.00 14.00" id="icon-toolbutton-edit"><path d="M9 3l2 2-7 7-2-2 7-7zm3-3l2 2-2 2-2-2 2-2zM0 14l1-3 2 2-3 1z"></path></symbol><symbol viewBox="0 0 20.00 20.00" id="icon-transaction-type-0"><path d="M10 0c5.523 0 10 4.477 10 10s-4.477 10-10 10S0 15.523 0 10 4.477 0 10 0zm0 2a8 8 0 1 0 0 16 8 8 0 0 0 0-16zm5 7v2H5V9h10z"></path></symbol><symbol viewBox="0 0 20.00 20.00" id="icon-transaction-type-1"><path d="M10 0c5.523 0 10 4.477 10 10s-4.477 10-10 10S0 15.523 0 10 4.477 0 10 0zm0 2a8 8 0 1 0 0 16 8 8 0 0 0 0-16zM9 5h2v4h4v2h-4v4H9v-4H5V9h4V5z"></path></symbol><symbol viewBox="0 0 20.00 20.00" id="icon-transaction-type-2"><path d="M10 0c5.523 0 10 4.477 10 10s-4.477 10-10 10S0 15.523 0 10 4.477 0 10 0zm0 2a8 8 0 1 0 0 16 8 8 0 0 0 0-16zm-5 9V9h6V7l4 3-4 3v-2H5z"></path></symbol></svg>