<svg xmlns="http://www.w3.org/2000/svg" style="position:absolute; width: 0; height: 0"><symbol viewBox="0 0 32.00 32.00" id="icon-bg"><path fill-opacity=".051" fill-rule="evenodd" d="M6 8l2-2 2 2-2 2-2-2zm-8-8l2-2 2 2-2 2-2-2zm0 32l2-2 2 2-2 2-2-2zm0-16l2-2 2 2-2 2-2-2zm8 8l2-2 2 2-2 2-2-2zm8-24l2-2 2 2-2 2-2-2zm0 32l2-2 2 2-2 2-2-2zm0-16l2-2 2 2-2 2-2-2zm8-8l2-2 2 2-2 2-2-2zm8-8l2-2 2 2-2 2-2-2zm0 32l2-2 2 2-2 2-2-2zm0-16l2-2 2 2-2 2-2-2zm-8 8l2-2 2 2-2 2-2-2zM6 0l2-2 2 2-2 2-2-2zm0 32l2-2 2 2-2 2-2-2zM-2 8l2-2 2 2-2 2-2-2zm0 16l2-2 2 2-2 2-2-2zM22 0l2-2 2 2-2 2-2-2zm0 32l2-2 2 2-2 2-2-2zm8-24l2-2 2 2-2 2-2-2zm0 16l2-2 2 2-2 2-2-2zM6 16l2-2 2 2-2 2-2-2zm8-8l2-2 2 2-2 2-2-2zm0 16l2-2 2 2-2 2-2-2zm8-8l2-2 2 2-2 2-2-2z"></path><path fill-opacity=".051" d="M0 4l4-4 4 4-4 4-4-4zm2 0l2 2 2-2-2-2-2 2zm14 0l4-4 4 4-4 4-4-4zm2 0l2 2 2-2-2-2-2 2zm-2 8l4-4 4 4-4 4-4-4zm2 0l2 2 2-2-2-2-2 2zm-2 8l4-4 4 4-4 4-4-4zm2 0l2 2 2-2-2-2-2 2zm-2 8l4-4 4 4-4 4-4-4zm2 0l2 2 2-2-2-2-2 2zM8 4l4-4 4 4-4 4-4-4zm2 0l2 2 2-2-2-2-2 2zm-2 8l4-4 4 4-4 4-4-4zm2 0l2 2 2-2-2-2-2 2zm-2 8l4-4 4 4-4 4-4-4zm2 0l2 2 2-2-2-2-2 2zm-2 8l4-4 4 4-4 4-4-4zm2 0l2 2 2-2-2-2-2 2zM0 12l4-4 4 4-4 4-4-4zm2 0l2 2 2-2-2-2-2 2zm-2 8l4-4 4 4-4 4-4-4zm2 0l2 2 2-2-2-2-2 2zm-2 8l4-4 4 4-4 4-4-4zm2 0l2 2 2-2-2-2-2 2zM24 4l4-4 4 4-4 4-4-4zm2 0l2 2 2-2-2-2-2 2zm-2 8l4-4 4 4-4 4-4-4zm2 0l2 2 2-2-2-2-2 2zm-2 8l4-4 4 4-4 4-4-4zm2 0l2 2 2-2-2-2-2 2zm-2 8l4-4 4 4-4 4-4-4zm2 0l2 2 2-2-2-2-2 2z"></path></symbol><symbol viewBox="0 0 17.92 17.92" id="icon-create"><path fill-rule="evenodd" d="M8.32 4.48H9.6v3.84h3.841V9.6h-3.84v3.841H8.32v-3.84H4.48V8.32h3.84V4.48z"></path></symbol><symbol viewBox="0 0 11.00 10.00" id="icon-data-table-column-arrow"><path d="M2 4h1v1h1v1h1v1h1V6h1V5h1V4h1V3h1v1H9v1H8v1H7v1H6v1H5V7H4V6H3V5H2V4H1V3h1v1z"></path></symbol><symbol viewBox="0 0 14.00 14.00" id="icon-database"><path d="M14 2v12H2v-2H0V0h12v2h2zM3 12v1h10V4h-1v8H3zm0-8h2v1H3V4zm0 2h2v1H3V6zm0 2h2v1H3V8zm4-4h2v1H7V4zm0 2h2v1H7V6zm0 2h2v1H7V8zM1 2v9h10V2H1z"></path></symbol><symbol viewBox="0 0 30.72 30.72" id="icon-databases"><path d="M8.96 8.96h5.761v1.28h-4.48v3.201h4.48v1.28h-5.76v-5.76zm4.481 1.92h1.28v1.921h-1.28v-1.92zm2.56-1.92h5.76v1.28h-4.48v3.201h4.48v1.28h-5.76v-5.76zm4.48 1.921h1.28v1.92h-1.28v-1.92zm-4.48 5.12h5.76v1.28h-4.48v3.2h4.48v1.28h-5.76v-5.76zm4.48 1.92h1.28v1.92h-1.28v-1.92zm-11.52-1.92h5.76v1.28h-4.48v3.2h4.48v1.28h-5.76v-5.76zm4.48 1.92h1.28v1.92h-1.28v-1.92z"></path></symbol><symbol viewBox="0 0 17.92 17.92" id="icon-delete"><path fill-rule="evenodd" d="M5.76 6.4h6.401v7.041h-6.4v-7.04zm1.28 1.28v4.481h1.28v-4.48H7.04zm3.84 4.481v-4.48H9.6v4.48h1.28zm-5.12-7.68h6.401v1.28h-6.4V4.48z"></path></symbol><symbol viewBox="0 0 17.92 17.92" id="icon-edit"><path fill-rule="evenodd" d="M10.24 6.4l1.281 1.28-4.48 4.481-1.28-1.28 4.48-4.48zm1.921-1.92l1.28 1.28-1.28 1.28-1.28-1.28 1.28-1.28zm-5.76 8.321l-1.92.64.64-1.92 1.28 1.28z"></path></symbol><symbol viewBox="0 0 17.92 17.92" id="icon-export"><path fill-rule="evenodd" d="M4.48 5.12h1.28v7.681H4.48v-7.68zm2.56 3.2h3.84V6.4l2.561 2.56-2.56 2.561v-1.92H7.04V8.32z"></path></symbol><symbol viewBox="0 0 17.92 17.92" id="icon-import"><path fill-rule="evenodd" d="M4.48 5.12h1.28v7.681H4.48v-7.68zm8.961 4.48h-3.84v1.921l-2.56-2.56L9.6 6.4v1.92h3.84V9.6z"></path></symbol><symbol viewBox="0 0 48.00 48.00" id="icon-logo"><path d="M14 15l4 2v16l-4-2V15zm16 2l4-2v16l-4 2V17zm-14 4v-5l8 4 4-2v5l-4 2-8-4z"></path></symbol><symbol viewBox="0 0 30.72 30.72" id="icon-logout"><path d="M9.6 9.6h9.602v1.28H10.88v8.962h8.32v1.28h-9.6V9.6zm3.841 5.121h5.76v-1.92l3.2 2.56-3.2 2.56v-1.92h-5.76v-1.28z"></path></symbol><symbol viewBox="0 0 30.72 30.72" id="icon-settings"><path d="M15.361 10.88a4.48 4.48 0 1 0 0 8.962 4.48 4.48 0 0 0 0-8.961zm-1.28-2.56h2.56l.523 1.569.793.329 1.491-.746 1.81 1.81-.747 1.495.32.772 1.598.532v2.56l-1.598.533-.313.757.76 1.517-1.811 1.81-1.508-.754-.755.317-.536 1.608h-2.56l-.53-1.588-.773-.316-1.504.752-1.81-1.81.74-1.482-.332-.79-1.578-.527v-2.56l1.558-.52.332-.81-.739-1.477 1.81-1.81 1.469.734.808-.336.522-1.568zm1.28 5.121a1.92 1.92 0 1 1 0 3.84 1.92 1.92 0 0 1 0-3.84z"></path></symbol><symbol viewBox="0 0 30.72 30.72" id="icon-status"><path stroke-width="1.28" stroke-linecap="round" stroke-linejoin="round" d="M9.6 15.361h3.201l1.28-2.56 2.56 5.12 1.28-2.56h3.2"></path><ellipse stroke-width="1.28" stroke-linecap="round" stroke-linejoin="round" cx="15.361" cy="15.361" rx="6.401" ry="6.401"></ellipse></symbol><symbol viewBox="0 0 14.00 14.00" id="icon-table"><path d="M3 4h3v1H3V4zm0 2h3v1H3V6zm0 2h3v1H3V8zm0 2h3v1H3v-1zm5-6h3v1H8V4zm0 2h3v1H8V6zm0 2h3v1H8V8zm0 2h3v1H8v-1zM0 0h14v14H0V0zm1 2v11h12V2H1z"></path></symbol></svg>